<svg width="31841" height="13624" viewBox="0 0 31841 13624" fill="none" xmlns="http://www.w3.org/2000/svg">
<path d="M17317.5 5975.68C17647.1 5646.1 17647.1 5111.73 17317.5 4782.15C16988 4452.56 16453.6 4452.56 16124 4782.15C15794.5 5111.73 15794.5 5646.1 16124 5975.68C16453.6 6305.27 16988 6305.27 17317.5 5975.68Z" stroke="#C8A75A" stroke-width="18" stroke-linecap="round" stroke-linejoin="round"/>
<path d="M17004.7 4584.79V3910.29H16436.7V4584.79" stroke="#C8A75A" stroke-width="18" stroke-linecap="round" stroke-linejoin="round"/>
<path d="M17110.3 3666.82H16331.5V3910.29H17110.3V3666.82Z" stroke="#C8A75A" stroke-width="18" stroke-linecap="round" stroke-linejoin="round"/>
<path d="M16874.8 3358.59H16566.6V3666.82H16874.8V3358.59Z" stroke="#C8A75A" stroke-width="18" stroke-linecap="round" stroke-linejoin="round"/>
<path d="M16785.7 31.9585H16655.7V3358.59H16785.7V31.9585Z" stroke="#C8A75A" stroke-width="18" stroke-linecap="round" stroke-linejoin="round"/>
<path d="M16401.8 6160V6441.74H17040.1V6160" stroke="#C8A75A" stroke-width="18" stroke-linecap="round" stroke-linejoin="round"/>
<path d="M17142.7 6441.74H16298.7V6685.22H17142.7V6441.74Z" stroke="#C8A75A" stroke-width="18" stroke-linecap="round" stroke-linejoin="round"/>
<path d="M16401.8 6685.22L16201.6 13592" stroke="#C8A75A" stroke-width="18" stroke-linecap="round" stroke-linejoin="round"/>
<path d="M17040.1 6685.22L17240.2 13592" stroke="#C8A75A" stroke-width="18" stroke-linecap="round" stroke-linejoin="round"/>
<path d="M2500.25 3796.76C2500.25 3796.76 2602.01 3593.23 2823.61 3586.5C3045.21 3579.77 3124.26 3660.51 3105.76 3716.02C3087.26 3771.53 2865.24 3794.65 2865.24 3794.65C2865.24 3794.65 2937.14 3928.79 2878.28 3984.3C2819.41 4039.81 2551.13 4012.06 2551.13 4012.06C2551.13 4012.06 2454 4516.66 2662.14 4636.09C2870.29 4755.51 2602.01 4866.95 2602.01 4866.95L2270.66 4877.88V4180.26C2270.66 4180.26 2284.54 3912.39 2067.56 3935.52C1850.59 3958.65 1905.67 3764.38 1896.42 3468.34H2016.68C2016.68 3468.34 2030.56 3773.63 2219.78 3773.63C2409.01 3773.63 2168.9 3468.34 2409.43 3468.34C2649.95 3468.34 2500.25 3796.76 2500.25 3796.76Z" stroke="#C8A75A" stroke-width="18" stroke-linecap="round" stroke-linejoin="round"/>
<path d="M2436.34 3470.86C2436.34 3470.86 2345.51 2904.44 2501.51 2885.94C2657.52 2867.44 2682.75 3621.82 2682.75 3621.82" stroke="#C8A75A" stroke-width="18" stroke-linecap="round" stroke-linejoin="round"/>
<path d="M2640.28 4875.78H2206.33V5328.24H2640.28V4875.78Z" stroke="#C8A75A" stroke-width="18" stroke-linecap="round" stroke-linejoin="round"/>
<path d="M3015.36 5526.72H1831.25V5879.95H3015.36V5526.72Z" stroke="#C8A75A" stroke-width="18" stroke-linecap="round" stroke-linejoin="round"/>
<path d="M2871.97 5328.24H1974.64V5526.72H2871.97V5328.24Z" stroke="#C8A75A" stroke-width="18" stroke-linecap="round" stroke-linejoin="round"/>
<path d="M2871.97 5879.53H1974.64V6078H2871.97V5879.53Z" stroke="#C8A75A" stroke-width="18" stroke-linecap="round" stroke-linejoin="round"/>
<path d="M2682.75 6078.43H2137.37V11220.8H2682.75V6078.43Z" stroke="#C8A75A" stroke-width="18" stroke-linecap="round" stroke-linejoin="round"/>
<path d="M2874.91 11220.4H1945.2V11493.7H2874.91V11220.4Z" stroke="#C8A75A" stroke-width="18" stroke-linecap="round" stroke-linejoin="round"/>
<path d="M3120.48 11493.7H1700.05V11767H3120.48V11493.7Z" stroke="#C8A75A" stroke-width="18" stroke-linecap="round" stroke-linejoin="round"/>
<path d="M4109.48 11767H711.054V12170.3H4109.48V11767Z" stroke="#C8A75A" stroke-width="18" stroke-linecap="round" stroke-linejoin="round"/>
<path d="M3813.45 13592V12170.3H1006.66V13592" stroke="#C8A75A" stroke-width="18" stroke-linecap="round" stroke-linejoin="round"/>
<path d="M8475.04 11379.8L10135.6 10614.9L11796.1 11379.8H8475.04Z" stroke="#C8A75A" stroke-width="18" stroke-linecap="round" stroke-linejoin="round"/>
<path d="M8595.72 11324.2V10513.5H11675V11324.2" stroke="#C8A75A" stroke-width="18" stroke-linecap="round" stroke-linejoin="round"/>
<path d="M8914.45 10512.7C8914.45 10189.2 9042.93 9879.07 9271.62 9650.38C9500.3 9421.68 9810.47 9293.2 10133.9 9293.2C10457.3 9293.2 10767.5 9421.68 10996.2 9650.38C11224.8 9879.07 11353.3 10189.2 11353.3 10512.7" stroke="#C8A75A" stroke-width="18" stroke-linecap="round" stroke-linejoin="round"/>
<path d="M9275.66 10512.7C9275.66 9839.86 9660.83 9293.2 10135.6 9293.2C10610.3 9293.2 10995.5 9839.86 10995.5 10512.7" stroke="#C8A75A" stroke-width="18" stroke-linecap="round" stroke-linejoin="round"/>
<path d="M9720.54 10512.7C9720.54 9839.86 9906.4 9293.2 10135.6 9293.2C10364.7 9293.2 10550.6 9839.86 10550.6 10512.7" stroke="#C8A75A" stroke-width="18" stroke-linecap="round" stroke-linejoin="round"/>
<path d="M8761.81 9993.34H8595.72V10513.5H8761.81V9993.34Z" stroke="#C8A75A" stroke-width="18" stroke-linecap="round" stroke-linejoin="round"/>
<path d="M11675 9993.34H11508.9V10513.5H11675V9993.34Z" stroke="#C8A75A" stroke-width="18" stroke-linecap="round" stroke-linejoin="round"/>
<path d="M8982.57 11611.5H8541.48V13592H8982.57V11611.5Z" stroke="#C8A75A" stroke-width="18" stroke-linecap="round" stroke-linejoin="round"/>
<path d="M9485.9 11611.5H9252.53V13592H9485.9V11611.5Z" stroke="#C8A75A" stroke-width="18" stroke-linecap="round" stroke-linejoin="round"/>
<path d="M9953.91 11611.5H9720.54V13592H9953.91V11611.5Z" stroke="#C8A75A" stroke-width="18" stroke-linecap="round" stroke-linejoin="round"/>
<path d="M11280.6 13592H11721.7V11611.5H11280.6V13592Z" stroke="#C8A75A" stroke-width="18" stroke-linecap="round" stroke-linejoin="round"/>
<path d="M10777.2 13592H11010.6V11611.5H10777.2V13592Z" stroke="#C8A75A" stroke-width="18" stroke-linecap="round" stroke-linejoin="round"/>
<path d="M10309.2 13592H10542.6V11611.5H10309.2V13592Z" stroke="#C8A75A" stroke-width="18" stroke-linecap="round" stroke-linejoin="round"/>
<path d="M11721.7 11379.8H8541.48V11611.5H11721.7V11379.8Z" stroke="#C8A75A" stroke-width="18" stroke-linecap="round" stroke-linejoin="round"/>
<path d="M8595.72 11230.9H4394.15V11737.6H8541.48" stroke="#C8A75A" stroke-width="18" stroke-linecap="round" stroke-linejoin="round"/>
<path d="M7132.83 10824.7H6926.36V11231.3H7132.83V10824.7Z" stroke="#C8A75A" stroke-width="18" stroke-linecap="round" stroke-linejoin="round"/>
<path d="M7639.1 10824.7H7432.64V11231.3H7639.1V10824.7Z" stroke="#C8A75A" stroke-width="18" stroke-linecap="round" stroke-linejoin="round"/>
<path d="M8145.79 10824.7H7939.33V11231.3H8145.79V10824.7Z" stroke="#C8A75A" stroke-width="18" stroke-linecap="round" stroke-linejoin="round"/>
<path d="M6669.86 10733.9H4631.73V11230.9H6669.86V10733.9Z" stroke="#C8A75A" stroke-width="18" stroke-linecap="round" stroke-linejoin="round"/>
<path d="M4938.27 10336.9H4631.73V10733.9H4938.27V10336.9Z" stroke="#C8A75A" stroke-width="18" stroke-linecap="round" stroke-linejoin="round"/>
<path d="M6032.4 10336.9H5725.86V10733.9H6032.4V10336.9Z" stroke="#C8A75A" stroke-width="18" stroke-linecap="round" stroke-linejoin="round"/>
<path d="M6032.39 10174.6H4631.73V10337.3H6032.39V10174.6Z" stroke="#C8A75A" stroke-width="18" stroke-linecap="round" stroke-linejoin="round"/>
<path d="M4394.15 13592V12925.5H8541.48V13592" stroke="#C8A75A" stroke-width="18" stroke-linecap="round" stroke-linejoin="round"/>
<path d="M5106.47 11737.6H4600.19V12925.5H5106.47V11737.6Z" stroke="#C8A75A" stroke-width="18" stroke-linecap="round" stroke-linejoin="round"/>
<path d="M6169.47 11737.6H5513.08V12925.5H6169.47V11737.6Z" stroke="#C8A75A" stroke-width="18" stroke-linecap="round" stroke-linejoin="round"/>
<path d="M8541.48 12143.8H6169.9V12381.4H8541.48V12143.8Z" stroke="#C8A75A" stroke-width="18" stroke-linecap="round" stroke-linejoin="round"/>
<path d="M6694.67 11737.6H6467.6V12144.2H6694.67V11737.6Z" stroke="#C8A75A" stroke-width="18" stroke-linecap="round" stroke-linejoin="round"/>
<path d="M7153.43 11737.6H6926.36V12144.2H7153.43V11737.6Z" stroke="#C8A75A" stroke-width="18" stroke-linecap="round" stroke-linejoin="round"/>
<path d="M7611.77 11737.6H7384.7V12144.2H7611.77V11737.6Z" stroke="#C8A75A" stroke-width="18" stroke-linecap="round" stroke-linejoin="round"/>
<path d="M8070.52 11737.6H7843.46V12144.2H8070.52V11737.6Z" stroke="#C8A75A" stroke-width="18" stroke-linecap="round" stroke-linejoin="round"/>
<path d="M6694.67 12381.4H6467.6V12925.5H6694.67V12381.4Z" stroke="#C8A75A" stroke-width="18" stroke-linecap="round" stroke-linejoin="round"/>
<path d="M7153.43 12381.4H6926.36V12925.5H7153.43V12381.4Z" stroke="#C8A75A" stroke-width="18" stroke-linecap="round" stroke-linejoin="round"/>
<path d="M7611.77 12381.4H7384.7V12925.5H7611.77V12381.4Z" stroke="#C8A75A" stroke-width="18" stroke-linecap="round" stroke-linejoin="round"/>
<path d="M8070.52 12381.4H7843.46V12925.5H8070.52V12381.4Z" stroke="#C8A75A" stroke-width="18" stroke-linecap="round" stroke-linejoin="round"/>
<path d="M5513.51 12143.8H5106.89V12450.4H5513.51V12143.8Z" stroke="#C8A75A" stroke-width="18" stroke-linecap="round" stroke-linejoin="round"/>
<path d="M11675 11230.9H15877V11737.6H11729.7" stroke="#C8A75A" stroke-width="18" stroke-linecap="round" stroke-linejoin="round"/>
<path d="M13138.3 11230.9H13344.8V10824.3H13138.3V11230.9Z" stroke="#C8A75A" stroke-width="18" stroke-linecap="round" stroke-linejoin="round"/>
<path d="M12632 11230.9H12838.5V10824.3H12632V11230.9Z" stroke="#C8A75A" stroke-width="18" stroke-linecap="round" stroke-linejoin="round"/>
<path d="M12125.3 11230.9H12331.8V10824.3H12125.3V11230.9Z" stroke="#C8A75A" stroke-width="18" stroke-linecap="round" stroke-linejoin="round"/>
<path d="M13601.3 11231.3H15639.4V10734.3H13601.3V11231.3Z" stroke="#C8A75A" stroke-width="18" stroke-linecap="round" stroke-linejoin="round"/>
<path d="M15333.3 10734.3H15639.8V10337.3H15333.3V10734.3Z" stroke="#C8A75A" stroke-width="18" stroke-linecap="round" stroke-linejoin="round"/>
<path d="M14238.7 10734.3H14545.3V10337.3H14238.7V10734.3Z" stroke="#C8A75A" stroke-width="18" stroke-linecap="round" stroke-linejoin="round"/>
<path d="M14238.7 10336.9H15639.4V10174.2H14238.7V10336.9Z" stroke="#C8A75A" stroke-width="18" stroke-linecap="round" stroke-linejoin="round"/>
<path d="M15877 13592V12925.5H11729.7V13592" stroke="#C8A75A" stroke-width="18" stroke-linecap="round" stroke-linejoin="round"/>
<path d="M15164.2 12925.5H15670.5V11737.6H15164.2V12925.5Z" stroke="#C8A75A" stroke-width="18" stroke-linecap="round" stroke-linejoin="round"/>
<path d="M14101.7 12925.5H14758V11737.6H14101.7V12925.5Z" stroke="#C8A75A" stroke-width="18" stroke-linecap="round" stroke-linejoin="round"/>
<path d="M11729.7 12381.8H14101.2V12144.2H11729.7V12381.8Z" stroke="#C8A75A" stroke-width="18" stroke-linecap="round" stroke-linejoin="round"/>
<path d="M13576.5 12143.8H13803.5V11737.2H13576.5V12143.8Z" stroke="#C8A75A" stroke-width="18" stroke-linecap="round" stroke-linejoin="round"/>
<path d="M13117.7 12143.8H13344.8V11737.2H13117.7V12143.8Z" stroke="#C8A75A" stroke-width="18" stroke-linecap="round" stroke-linejoin="round"/>
<path d="M12659.4 12143.8H12886.4V11737.2H12659.4V12143.8Z" stroke="#C8A75A" stroke-width="18" stroke-linecap="round" stroke-linejoin="round"/>
<path d="M12200.6 12143.8H12427.7V11737.2H12200.6V12143.8Z" stroke="#C8A75A" stroke-width="18" stroke-linecap="round" stroke-linejoin="round"/>
<path d="M13576.5 12925.5H13803.5V12381.4H13576.5V12925.5Z" stroke="#C8A75A" stroke-width="18" stroke-linecap="round" stroke-linejoin="round"/>
<path d="M13117.7 12925.5H13344.8V12381.4H13117.7V12925.5Z" stroke="#C8A75A" stroke-width="18" stroke-linecap="round" stroke-linejoin="round"/>
<path d="M12659.4 12925.5H12886.4V12381.4H12659.4V12925.5Z" stroke="#C8A75A" stroke-width="18" stroke-linecap="round" stroke-linejoin="round"/>
<path d="M12200.6 12925.5H12427.7V12381.4H12200.6V12925.5Z" stroke="#C8A75A" stroke-width="18" stroke-linecap="round" stroke-linejoin="round"/>
<path d="M14757.6 12450.4H15164.2V12143.8H14757.6V12450.4Z" stroke="#C8A75A" stroke-width="18" stroke-linecap="round" stroke-linejoin="round"/>
<path d="M4394.15 13592H3813.45" stroke="#C8A75A" stroke-width="18" stroke-linecap="round" stroke-linejoin="round"/>
<path d="M15877 13592H16201.6" stroke="#C8A75A" stroke-width="18" stroke-linecap="round" stroke-linejoin="round"/>
<path d="M22093.5 9015.25H20248.8V9226.76H22093.5V9015.25Z" stroke="#C8A75A" stroke-width="18" stroke-linecap="round" stroke-linejoin="round"/>
<path d="M21375.8 8287.35H20967V9015.24H21375.8V8287.35Z" stroke="#C8A75A" stroke-width="18" stroke-linecap="round" stroke-linejoin="round"/>
<path d="M21413.6 7918.98H20928.8V8109.05H21413.6V7918.98Z" stroke="#C8A75A" stroke-width="18" stroke-linecap="round" stroke-linejoin="round"/>
<path d="M21314 8116.62H21028.9V8287.35H21314V8116.62Z" stroke="#C8A75A" stroke-width="18" stroke-linecap="round" stroke-linejoin="round"/>
<path d="M20438.9 8137.65C20438.9 8137.65 20386.8 8570.35 20710.1 8617.87V9015.25H20496.1V8812.98C20496.1 8812.98 20153.8 8598.94 20438.9 8137.65Z" stroke="#C8A75A" stroke-width="18" stroke-linecap="round" stroke-linejoin="round"/>
<path d="M21903.5 8137.65C21903.5 8137.65 21955.6 8570.35 21632.3 8617.87V9015.25H21846.3V8812.98C21846.3 8812.98 22188.6 8598.94 21903.5 8137.65Z" stroke="#C8A75A" stroke-width="18" stroke-linecap="round" stroke-linejoin="round"/>
<path d="M18164.9 10661.5H17712.9V10921.4H18164.9V10661.5Z" stroke="#C8A75A" stroke-width="18" stroke-linecap="round" stroke-linejoin="round"/>
<path d="M18468.1 13592V11084.6H17712.9V13592" stroke="#C8A75A" stroke-width="18" stroke-linecap="round" stroke-linejoin="round"/>
<path d="M19479.8 11434.4H18888.1V13592H19479.8V11434.4Z" stroke="#C8A75A" stroke-width="18" stroke-linecap="round" stroke-linejoin="round"/>
<path d="M20652.9 11434.4H20061.3V13592H20652.9V11434.4Z" stroke="#C8A75A" stroke-width="18" stroke-linecap="round" stroke-linejoin="round"/>
<path d="M17962.6 10043H21171.4" stroke="#C8A75A" stroke-width="18" stroke-linecap="round" stroke-linejoin="round"/>
<path d="M21171.4 9553.07H17712.9V9850.79H21171.4H24629.5V9553.07H21171.4Z" stroke="#C8A75A" stroke-width="18" stroke-linecap="round" stroke-linejoin="round"/>
<path d="M21171.4 9850.79H17962.6V10235.1H21171.4H24379.8V9850.79H21171.4Z" stroke="#C8A75A" stroke-width="18" stroke-linecap="round" stroke-linejoin="round"/>
<path d="M22093.5 9226.34H21171.4H20248.8L17712.9 9553.07H21171.4H24629.5L22093.5 9226.34Z" stroke="#C8A75A" stroke-width="18" stroke-linecap="round" stroke-linejoin="round"/>
<path d="M21171.4 10235.1H17360.5L17712.9 10661.5H21171.4H24629.5L24982.3 10235.1H21171.4Z" stroke="#C8A75A" stroke-width="18" stroke-linecap="round" stroke-linejoin="round"/>
<path d="M21171.4 10921.4H17712.9V11084.6H21171.4H24629.5V10921.4H21171.4Z" stroke="#C8A75A" stroke-width="18" stroke-linecap="round" stroke-linejoin="round"/>
<path d="M24177.5 10921H24629.5V10661.1H24177.5V10921Z" stroke="#C8A75A" stroke-width="18" stroke-linecap="round" stroke-linejoin="round"/>
<path d="M23874.8 13592V11084.6H24629.5V13592" stroke="#C8A75A" stroke-width="18" stroke-linecap="round" stroke-linejoin="round"/>
<path d="M22862.6 13592.5H23454.3V11434.8H22862.6V13592.5Z" stroke="#C8A75A" stroke-width="18" stroke-linecap="round" stroke-linejoin="round"/>
<path d="M21689.5 13592.5H22281.1V11434.8H21689.5V13592.5Z" stroke="#C8A75A" stroke-width="18" stroke-linecap="round" stroke-linejoin="round"/>
<path d="M21171.4 11084.6H18468.1V11434.4H21171.4H23874.8V11084.6H21171.4Z" stroke="#C8A75A" stroke-width="18" stroke-linecap="round" stroke-linejoin="round"/>
<path d="M24379.8 10043H21171.4" stroke="#C8A75A" stroke-width="18" stroke-linecap="round" stroke-linejoin="round"/>
<path d="M17712.9 13592H17240.2" stroke="#C8A75A" stroke-width="18" stroke-linecap="round" stroke-linejoin="round"/>
<path d="M30209.1 13592V5407.72C30209.1 5407.72 28485 6017.87 28485 7171.32V13592" stroke="#C8A75A" stroke-width="18" stroke-linecap="round" stroke-linejoin="round"/>
<path d="M30209.1 5757.16H30627.5V13592" stroke="#C8A75A" stroke-width="18" stroke-linecap="round" stroke-linejoin="round"/>
<path d="M30627.5 6289.52H30995V13592" stroke="#C8A75A" stroke-width="18" stroke-linecap="round" stroke-linejoin="round"/>
<path d="M30209.1 6101.13H30627.5" stroke="#C8A75A" stroke-width="18" stroke-linecap="round" stroke-linejoin="round"/>
<path d="M30209.1 6460.25H30627.5" stroke="#C8A75A" stroke-width="18" stroke-linecap="round" stroke-linejoin="round"/>
<path d="M30209.1 6818.94H30627.5" stroke="#C8A75A" stroke-width="18" stroke-linecap="round" stroke-linejoin="round"/>
<path d="M30209.1 7177.63H30627.5" stroke="#C8A75A" stroke-width="18" stroke-linecap="round" stroke-linejoin="round"/>
<path d="M30209.1 7536.74H30627.5" stroke="#C8A75A" stroke-width="18" stroke-linecap="round" stroke-linejoin="round"/>
<path d="M30209.1 7895.44H30627.5" stroke="#C8A75A" stroke-width="18" stroke-linecap="round" stroke-linejoin="round"/>
<path d="M30209.1 8254.13H30627.5" stroke="#C8A75A" stroke-width="18" stroke-linecap="round" stroke-linejoin="round"/>
<path d="M30209.1 8613.24H30627.5" stroke="#C8A75A" stroke-width="18" stroke-linecap="round" stroke-linejoin="round"/>
<path d="M30209.1 8971.93H30627.5" stroke="#C8A75A" stroke-width="18" stroke-linecap="round" stroke-linejoin="round"/>
<path d="M30209.1 9330.63H30627.5" stroke="#C8A75A" stroke-width="18" stroke-linecap="round" stroke-linejoin="round"/>
<path d="M30209.1 9689.74H30627.5" stroke="#C8A75A" stroke-width="18" stroke-linecap="round" stroke-linejoin="round"/>
<path d="M30209.1 10048.4H30627.5" stroke="#C8A75A" stroke-width="18" stroke-linecap="round" stroke-linejoin="round"/>
<path d="M30209.1 10407.1H30627.5" stroke="#C8A75A" stroke-width="18" stroke-linecap="round" stroke-linejoin="round"/>
<path d="M30209.1 10766.2H30627.5" stroke="#C8A75A" stroke-width="18" stroke-linecap="round" stroke-linejoin="round"/>
<path d="M30209.1 11124.9H30627.5" stroke="#C8A75A" stroke-width="18" stroke-linecap="round" stroke-linejoin="round"/>
<path d="M30209.1 11483.6H30627.5" stroke="#C8A75A" stroke-width="18" stroke-linecap="round" stroke-linejoin="round"/>
<path d="M30209.1 11842.7H30627.5" stroke="#C8A75A" stroke-width="18" stroke-linecap="round" stroke-linejoin="round"/>
<path d="M30209.1 12201.4H30627.5" stroke="#C8A75A" stroke-width="18" stroke-linecap="round" stroke-linejoin="round"/>
<path d="M30209.1 12560.1H30627.5" stroke="#C8A75A" stroke-width="18" stroke-linecap="round" stroke-linejoin="round"/>
<path d="M30209.1 12919.2H30627.5" stroke="#C8A75A" stroke-width="18" stroke-linecap="round" stroke-linejoin="round"/>
<path d="M30209.1 13277.9H30627.5" stroke="#C8A75A" stroke-width="18" stroke-linecap="round" stroke-linejoin="round"/>
<path d="M27111.7 6074.64H27607.5" stroke="#C8A75A" stroke-width="18" stroke-linecap="round" stroke-linejoin="round"/>
<path d="M27111.7 6499.77H27607.5" stroke="#C8A75A" stroke-width="18" stroke-linecap="round" stroke-linejoin="round"/>
<path d="M27111.7 6924.91H27607.5" stroke="#C8A75A" stroke-width="18" stroke-linecap="round" stroke-linejoin="round"/>
<path d="M27111.7 7350.04H27607.5" stroke="#C8A75A" stroke-width="18" stroke-linecap="round" stroke-linejoin="round"/>
<path d="M27111.7 7775.17H27607.5" stroke="#C8A75A" stroke-width="18" stroke-linecap="round" stroke-linejoin="round"/>
<path d="M27111.7 8200.3H27607.5" stroke="#C8A75A" stroke-width="18" stroke-linecap="round" stroke-linejoin="round"/>
<path d="M27111.7 8625.44H27607.5" stroke="#C8A75A" stroke-width="18" stroke-linecap="round" stroke-linejoin="round"/>
<path d="M27111.7 9050.57H27607.5" stroke="#C8A75A" stroke-width="18" stroke-linecap="round" stroke-linejoin="round"/>
<path d="M27111.7 9475.7H27607.5" stroke="#C8A75A" stroke-width="18" stroke-linecap="round" stroke-linejoin="round"/>
<path d="M27111.7 9900.83H27607.5" stroke="#C8A75A" stroke-width="18" stroke-linecap="round" stroke-linejoin="round"/>
<path d="M27111.7 10326H27607.5" stroke="#C8A75A" stroke-width="18" stroke-linecap="round" stroke-linejoin="round"/>
<path d="M27111.7 10751.1H27607.5" stroke="#C8A75A" stroke-width="18" stroke-linecap="round" stroke-linejoin="round"/>
<path d="M27111.7 11176.2H27607.5" stroke="#C8A75A" stroke-width="18" stroke-linecap="round" stroke-linejoin="round"/>
<path d="M27111.7 11601.8H27607.5" stroke="#C8A75A" stroke-width="18" stroke-linecap="round" stroke-linejoin="round"/>
<path d="M27111.7 12026.9H27607.5" stroke="#C8A75A" stroke-width="18" stroke-linecap="round" stroke-linejoin="round"/>
<path d="M27111.7 12452H27607.5" stroke="#C8A75A" stroke-width="18" stroke-linecap="round" stroke-linejoin="round"/>
<path d="M27111.7 12877.2H27607.5" stroke="#C8A75A" stroke-width="18" stroke-linecap="round" stroke-linejoin="round"/>
<path d="M27111.7 13302.3H27607.5" stroke="#C8A75A" stroke-width="18" stroke-linecap="round" stroke-linejoin="round"/>
<path d="M24974.3 13592V12358.3H25937.7V6215.51L27632.7 4520.45V13592" stroke="#C8A75A" stroke-width="18" stroke-linecap="round" stroke-linejoin="round"/>
<path d="M27632.7 5717.21H27086.5V13592" stroke="#C8A75A" stroke-width="18" stroke-linecap="round" stroke-linejoin="round"/>
<path d="M27632.7 5162.98H28049.8V13592" stroke="#C8A75A" stroke-width="18" stroke-linecap="round" stroke-linejoin="round"/>
<path d="M26693.7 5459.02V3351.02H27002V5162.98" stroke="#C8A75A" stroke-width="18" stroke-linecap="round" stroke-linejoin="round"/>
<path d="M24629.5 13592H24974.3" stroke="#C8A75A" stroke-width="18" stroke-linecap="round" stroke-linejoin="round"/>
<path d="M28049.8 13592H28485" stroke="#C8A75A" stroke-width="18" stroke-linecap="round" stroke-linejoin="round"/>
<path d="M30995 13592H31809.5" stroke="#C8A75A" stroke-width="18" stroke-linecap="round" stroke-linejoin="round"/>
<path d="M1006.66 13592H31.957" stroke="#C8A75A" stroke-width="18" stroke-linecap="round" stroke-linejoin="round"/>
</svg>
