<svg xmlns="http://www.w3.org/2000/svg" viewBox="0 0 757.23 323.99"><defs><style>.cls-1{fill:none;stroke:#9d9d9c;stroke-linecap:round;stroke-linejoin:round;stroke-width:1.51px;}</style></defs><title>Recurso 13dpi</title><g id="Capa_2" data-name="Capa 2"><g id="Capa_1-2" data-name="Capa 1"><circle class="cls-1" cx="397.65" cy="127.91" r="20.07" transform="translate(26.02 318.65) rotate(-45)"/><polyline class="cls-1" points="404.4 109.03 404.4 92.99 390.89 92.99 390.89 109.03"/><rect class="cls-1" x="388.39" y="87.2" width="18.52" height="5.79"/><rect class="cls-1" x="393.98" y="79.87" width="7.33" height="7.33"/><rect class="cls-1" x="396.1" y="0.76" width="3.09" height="79.11"/><polyline class="cls-1" points="390.06 146.49 390.06 153.19 405.24 153.19 405.24 146.49"/><rect class="cls-1" x="387.61" y="153.19" width="20.07" height="5.79"/><line class="cls-1" x1="390.06" y1="158.98" x2="385.3" y2="323.23"/><line class="cls-1" x1="405.24" y1="158.98" x2="410" y2="323.23"/><path class="cls-1" d="M59.46,90.29s2.42-4.84,7.69-5,7.15,1.76,6.71,3.08-5.72,1.87-5.72,1.87,1.71,3.19.31,4.51-7.78.66-7.78.66-2.31,12,2.64,14.84-1.43,5.49-1.43,5.49L54,116V99.41s.33-6.37-4.83-5.82-3.85-4.07-4.07-11.11h2.86s.33,7.26,4.83,7.26-1.21-7.26,4.51-7.26S59.46,90.29,59.46,90.29Z"/><path class="cls-1" d="M57.94,82.54s-2.16-13.47,1.55-13.91,4.31,17.5,4.31,17.5"/><rect class="cls-1" x="52.47" y="115.95" width="10.32" height="10.76"/><rect class="cls-1" x="43.55" y="131.43" width="28.16" height="8.4"/><rect class="cls-1" x="46.96" y="126.71" width="21.34" height="4.72"/><rect class="cls-1" x="46.96" y="139.82" width="21.34" height="4.72"/><rect class="cls-1" x="50.83" y="144.55" width="12.97" height="122.29"/><rect class="cls-1" x="46.26" y="266.83" width="22.11" height="6.5"/><rect class="cls-1" x="40.43" y="273.33" width="33.78" height="6.5"/><rect class="cls-1" x="16.91" y="279.83" width="80.82" height="9.59"/><polyline class="cls-1" points="90.69 323.23 90.69 289.42 23.94 289.42 23.94 323.23"/><polygon class="cls-1" points="201.55 270.62 241.04 252.43 280.53 270.62 201.55 270.62"/><polyline class="cls-1" points="204.42 269.3 204.42 250.02 277.65 250.02 277.65 269.3"/><path class="cls-1" d="M212,250a29,29,0,1,1,58,0"/><path class="cls-1" d="M220.59,250c0-16,9.16-29,20.45-29s20.45,13,20.45,29"/><path class="cls-1" d="M231.17,250c0-16,4.42-29,9.87-29s9.87,13,9.87,29"/><rect class="cls-1" x="204.42" y="237.65" width="3.95" height="12.37"/><rect class="cls-1" x="273.7" y="237.65" width="3.95" height="12.37"/><rect class="cls-1" x="203.13" y="276.13" width="10.49" height="47.1"/><rect class="cls-1" x="220.04" y="276.13" width="5.55" height="47.1"/><rect class="cls-1" x="231.17" y="276.13" width="5.55" height="47.1"/><rect class="cls-1" x="268.28" y="276.13" width="10.49" height="47.1" transform="translate(547.04 599.36) rotate(180)"/><rect class="cls-1" x="256.3" y="276.13" width="5.55" height="47.1" transform="translate(518.15 599.36) rotate(180)"/><rect class="cls-1" x="245.18" y="276.13" width="5.55" height="47.1" transform="translate(495.9 599.36) rotate(180)"/><rect class="cls-1" x="203.13" y="270.62" width="75.63" height="5.51"/><polyline class="cls-1" points="204.42 267.08 104.5 267.08 104.5 279.13 203.13 279.13"/><rect class="cls-1" x="164.72" y="257.42" width="4.91" height="9.67"/><rect class="cls-1" x="176.76" y="257.42" width="4.91" height="9.67"/><rect class="cls-1" x="188.81" y="257.42" width="4.91" height="9.67"/><rect class="cls-1" x="110.15" y="255.26" width="48.47" height="11.82"/><rect class="cls-1" x="110.15" y="245.82" width="7.29" height="9.44"/><rect class="cls-1" x="136.17" y="245.82" width="7.29" height="9.44"/><rect class="cls-1" x="110.15" y="241.96" width="33.31" height="3.87"/><polyline class="cls-1" points="104.5 323.23 104.5 307.38 203.13 307.38 203.13 323.23"/><rect class="cls-1" x="109.4" y="279.13" width="12.04" height="28.25"/><rect class="cls-1" x="131.11" y="279.13" width="15.61" height="28.25"/><rect class="cls-1" x="146.73" y="288.79" width="56.4" height="5.65"/><rect class="cls-1" x="153.81" y="279.13" width="5.4" height="9.67"/><rect class="cls-1" x="164.72" y="279.13" width="5.4" height="9.67"/><rect class="cls-1" x="175.62" y="279.13" width="5.4" height="9.67"/><rect class="cls-1" x="186.53" y="279.13" width="5.4" height="9.67"/><rect class="cls-1" x="153.81" y="294.44" width="5.4" height="12.94"/><rect class="cls-1" x="164.72" y="294.44" width="5.4" height="12.94"/><rect class="cls-1" x="175.62" y="294.44" width="5.4" height="12.94"/><rect class="cls-1" x="186.53" y="294.44" width="5.4" height="12.94"/><rect class="cls-1" x="121.45" y="288.79" width="9.67" height="7.29"/><polyline class="cls-1" points="277.65 267.08 377.58 267.08 377.58 279.13 278.95 279.13"/><rect class="cls-1" x="312.45" y="257.42" width="4.91" height="9.67" transform="translate(629.81 524.5) rotate(180)"/><rect class="cls-1" x="300.41" y="257.42" width="4.91" height="9.67" transform="translate(605.73 524.5) rotate(180)"/><rect class="cls-1" x="288.37" y="257.42" width="4.91" height="9.67" transform="translate(581.64 524.5) rotate(180)"/><rect class="cls-1" x="323.46" y="255.26" width="48.47" height="11.82" transform="translate(695.39 522.35) rotate(180)"/><rect class="cls-1" x="364.64" y="245.82" width="7.29" height="9.44" transform="translate(736.58 501.09) rotate(180)"/><rect class="cls-1" x="338.62" y="245.82" width="7.29" height="9.44" transform="translate(684.53 501.09) rotate(180)"/><rect class="cls-1" x="338.62" y="241.96" width="33.31" height="3.87" transform="translate(710.55 487.78) rotate(180)"/><polyline class="cls-1" points="377.58 323.23 377.58 307.38 278.95 307.38 278.95 323.23"/><rect class="cls-1" x="360.63" y="279.13" width="12.04" height="28.25" transform="translate(733.3 586.51) rotate(180)"/><rect class="cls-1" x="335.35" y="279.13" width="15.61" height="28.25" transform="translate(686.32 586.51) rotate(180)"/><rect class="cls-1" x="278.95" y="288.79" width="56.4" height="5.65" transform="translate(614.3 583.24) rotate(180)"/><rect class="cls-1" x="322.86" y="279.13" width="5.4" height="9.67" transform="translate(651.13 567.92) rotate(180)"/><rect class="cls-1" x="311.96" y="279.13" width="5.4" height="9.67" transform="translate(629.32 567.92) rotate(180)"/><rect class="cls-1" x="301.05" y="279.13" width="5.4" height="9.67" transform="translate(607.51 567.92) rotate(180)"/><rect class="cls-1" x="290.15" y="279.13" width="5.4" height="9.67" transform="translate(585.7 567.92) rotate(180)"/><rect class="cls-1" x="322.86" y="294.44" width="5.4" height="12.94" transform="translate(651.13 601.82) rotate(180)"/><rect class="cls-1" x="311.96" y="294.44" width="5.4" height="12.94" transform="translate(629.32 601.82) rotate(180)"/><rect class="cls-1" x="301.05" y="294.44" width="5.4" height="12.94" transform="translate(607.51 601.82) rotate(180)"/><rect class="cls-1" x="290.15" y="294.44" width="5.4" height="12.94" transform="translate(585.7 601.82) rotate(180)"/><rect class="cls-1" x="350.96" y="288.79" width="9.67" height="7.29" transform="translate(711.59 584.87) rotate(180)"/><line class="cls-1" x1="104.5" y1="323.23" x2="90.69" y2="323.23"/><line class="cls-1" x1="377.58" y1="323.23" x2="385.3" y2="323.23"/><rect class="cls-1" x="481.55" y="214.39" width="43.87" height="5.03"/><rect class="cls-1" x="498.63" y="197.08" width="9.72" height="17.31"/><rect class="cls-1" x="497.72" y="188.32" width="11.53" height="4.52"/><rect class="cls-1" x="500.1" y="193.02" width="6.78" height="4.06"/><path class="cls-1" d="M486.07,193.52s-1.24,10.29,6.45,11.42v9.45h-5.09v-4.81S479.29,204.49,486.07,193.52Z"/><path class="cls-1" d="M520.9,193.52s1.24,10.29-6.45,11.42v9.45h5.09v-4.81S527.68,204.49,520.9,193.52Z"/><rect class="cls-1" x="421.24" y="253.54" width="10.75" height="6.18"/><polyline class="cls-1" points="439.2 323.23 439.2 263.6 421.24 263.6 421.24 323.23"/><rect class="cls-1" x="449.19" y="271.92" width="14.07" height="51.31"/><rect class="cls-1" x="477.09" y="271.92" width="14.07" height="51.31"/><line class="cls-1" x1="427.18" y1="238.83" x2="503.49" y2="238.83"/><polygon class="cls-1" points="503.49 227.18 421.24 227.18 421.24 234.26 503.49 234.26 585.73 234.26 585.73 227.18 503.49 227.18"/><polygon class="cls-1" points="503.49 234.26 427.18 234.26 427.18 243.4 503.49 243.4 579.79 243.4 579.79 234.26 503.49 234.26"/><polygon class="cls-1" points="525.42 219.41 503.49 219.41 481.55 219.41 421.24 227.18 503.49 227.18 585.73 227.18 525.42 219.41"/><polygon class="cls-1" points="503.49 243.4 412.86 243.4 421.24 253.54 503.49 253.54 585.73 253.54 594.12 243.4 503.49 243.4"/><polygon class="cls-1" points="503.49 259.72 421.24 259.72 421.24 263.6 503.49 263.6 585.73 263.6 585.73 259.72 503.49 259.72"/><rect class="cls-1" x="574.99" y="253.54" width="10.75" height="6.18" transform="translate(1160.72 513.25) rotate(180)"/><polyline class="cls-1" points="567.78 323.23 567.78 263.6 585.73 263.6 585.73 323.23"/><rect class="cls-1" x="543.7" y="271.92" width="14.07" height="51.31" transform="translate(1101.48 595.16) rotate(180)"/><rect class="cls-1" x="515.81" y="271.92" width="14.07" height="51.31" transform="translate(1045.69 595.16) rotate(180)"/><polygon class="cls-1" points="503.49 263.6 439.2 263.6 439.2 271.92 503.49 271.92 567.78 271.92 567.78 263.6 503.49 263.6"/><line class="cls-1" x1="579.79" y1="238.83" x2="503.49" y2="238.83"/><line class="cls-1" x1="421.24" y1="323.23" x2="410" y2="323.23"/><path class="cls-1" d="M718.42,323.23V128.6s-41,14.51-41,41.94V323.23"/><polyline class="cls-1" points="718.42 136.91 728.37 136.91 728.37 323.23"/><polyline class="cls-1" points="728.37 149.57 737.11 149.57 737.11 323.23"/><line class="cls-1" x1="718.42" y1="145.09" x2="728.37" y2="145.09"/><line class="cls-1" x1="718.42" y1="153.63" x2="728.37" y2="153.63"/><line class="cls-1" x1="718.42" y1="162.16" x2="728.37" y2="162.16"/><line class="cls-1" x1="718.42" y1="170.69" x2="728.37" y2="170.69"/><line class="cls-1" x1="718.42" y1="179.23" x2="728.37" y2="179.23"/><line class="cls-1" x1="718.42" y1="187.76" x2="728.37" y2="187.76"/><line class="cls-1" x1="718.42" y1="196.29" x2="728.37" y2="196.29"/><line class="cls-1" x1="718.42" y1="204.83" x2="728.37" y2="204.83"/><line class="cls-1" x1="718.42" y1="213.36" x2="728.37" y2="213.36"/><line class="cls-1" x1="718.42" y1="221.89" x2="728.37" y2="221.89"/><line class="cls-1" x1="718.42" y1="230.43" x2="728.37" y2="230.43"/><line class="cls-1" x1="718.42" y1="238.96" x2="728.37" y2="238.96"/><line class="cls-1" x1="718.42" y1="247.49" x2="728.37" y2="247.49"/><line class="cls-1" x1="718.42" y1="256.03" x2="728.37" y2="256.03"/><line class="cls-1" x1="718.42" y1="264.56" x2="728.37" y2="264.56"/><line class="cls-1" x1="718.42" y1="273.09" x2="728.37" y2="273.09"/><line class="cls-1" x1="718.42" y1="281.63" x2="728.37" y2="281.63"/><line class="cls-1" x1="718.42" y1="290.16" x2="728.37" y2="290.16"/><line class="cls-1" x1="718.42" y1="298.69" x2="728.37" y2="298.69"/><line class="cls-1" x1="718.42" y1="307.23" x2="728.37" y2="307.23"/><line class="cls-1" x1="718.42" y1="315.76" x2="728.37" y2="315.76"/><line class="cls-1" x1="644.76" y1="144.46" x2="656.55" y2="144.46"/><line class="cls-1" x1="644.76" y1="154.57" x2="656.55" y2="154.57"/><line class="cls-1" x1="644.76" y1="164.68" x2="656.55" y2="164.68"/><line class="cls-1" x1="644.76" y1="174.79" x2="656.55" y2="174.79"/><line class="cls-1" x1="644.76" y1="184.9" x2="656.55" y2="184.9"/><line class="cls-1" x1="644.76" y1="195.01" x2="656.55" y2="195.01"/><line class="cls-1" x1="644.76" y1="205.12" x2="656.55" y2="205.12"/><line class="cls-1" x1="644.76" y1="215.23" x2="656.55" y2="215.23"/><line class="cls-1" x1="644.76" y1="225.34" x2="656.55" y2="225.34"/><line class="cls-1" x1="644.76" y1="235.45" x2="656.55" y2="235.45"/><line class="cls-1" x1="644.76" y1="245.56" x2="656.55" y2="245.56"/><line class="cls-1" x1="644.76" y1="255.67" x2="656.55" y2="255.67"/><line class="cls-1" x1="644.76" y1="265.78" x2="656.55" y2="265.78"/><line class="cls-1" x1="644.76" y1="275.9" x2="656.55" y2="275.9"/><line class="cls-1" x1="644.76" y1="286.01" x2="656.55" y2="286.01"/><line class="cls-1" x1="644.76" y1="296.12" x2="656.55" y2="296.12"/><line class="cls-1" x1="644.76" y1="306.23" x2="656.55" y2="306.23"/><line class="cls-1" x1="644.76" y1="316.34" x2="656.55" y2="316.34"/><polyline class="cls-1" points="593.93 323.23 593.93 293.89 616.84 293.89 616.84 147.81 657.15 107.5 657.15 323.23"/><polyline class="cls-1" points="657.15 135.96 644.16 135.96 644.16 323.23"/><polyline class="cls-1" points="657.15 122.78 667.07 122.78 667.07 323.23"/><polyline class="cls-1" points="634.82 129.82 634.82 79.69 642.15 79.69 642.15 122.78"/><line class="cls-1" x1="585.73" y1="323.23" x2="593.93" y2="323.23"/><line class="cls-1" x1="667.07" y1="323.23" x2="677.42" y2="323.23"/><line class="cls-1" x1="737.11" y1="323.23" x2="756.48" y2="323.23"/><line class="cls-1" x1="23.94" y1="323.23" x2="0.76" y2="323.23"/></g></g></svg>