<svg xmlns="http://www.w3.org/2000/svg" viewBox="0 0 225.95 168.07"><defs><style>.cls-1{fill:#fff;}</style></defs><title>LOGO BLANCO3dpi</title><g id="Capa_2" data-name="Capa 2"><g id="Capa_1-2" data-name="Capa 1"><path class="cls-1" d="M14.14,101.84H.05v2.35H1.62a2.26,2.26,0,0,1,1.59.61A2.16,2.16,0,0,1,4,106.23v28.5a2.63,2.63,0,0,1-.75,1.67,2.19,2.19,0,0,1-1.65.67H0v2.3H13.07v-2.3H11.5a2.16,2.16,0,0,1-1.65-.67,2.64,2.64,0,0,1-.76-1.63V105.19h5A5.12,5.12,0,0,1,18.35,107,8.45,8.45,0,0,1,20,112.14v.42a10,10,0,0,1-.21,2.2l0,.1a7.33,7.33,0,0,1-1.45,2.63,6.72,6.72,0,0,1-2,1.57,7,7,0,0,1-2.18.74,9.11,9.11,0,0,1-3.48,0,2.77,2.77,0,0,1-.48-.13l-.65-.26v1.71l.25.13a15.3,15.3,0,0,0,2.45,1.1,7.47,7.47,0,0,0,2.43.37,11.56,11.56,0,0,0,4.08-.74,13.65,13.65,0,0,0,3.46-1.87A8.42,8.42,0,0,0,24.67,117a10.15,10.15,0,0,0,.94-4.38,10.39,10.39,0,0,0-3.06-7.9C20.53,102.81,17.7,101.84,14.14,101.84Z"/><path class="cls-1" d="M35.49,104.09h1.57a2.1,2.1,0,0,1,1.64.69,2.77,2.77,0,0,1,.76,1.66v28.29a2.69,2.69,0,0,1-.75,1.67,2.19,2.19,0,0,1-1.65.67H35.49v2.3h13v-2.3H46.94a2.16,2.16,0,0,1-1.65-.67,2.64,2.64,0,0,1-.76-1.63V106.48a2.77,2.77,0,0,1,.76-1.7,2.12,2.12,0,0,1,1.65-.69H48.5v-2.3h-13Z"/><path class="cls-1" d="M84.2,104.14H86a2.08,2.08,0,0,1,1.57.64,2.58,2.58,0,0,1,.73,1.56V129.4L61.77,101.06H59.84l.32,2.61c.07.62.13,1.34.18,2.15s.08,1.65.08,2.5v26.53a2.37,2.37,0,0,1-.7,1.63,2.1,2.1,0,0,1-1.55.64H56.34v2.3H68.68v-2.3H66.85a2,2,0,0,1-1.52-.64,2.58,2.58,0,0,1-.73-1.55V111.81l26.56,28.34h1.89l-.07-.53c-.11-.73-.19-1.47-.26-2.23s-.13-1.4-.18-2.21-.08-1.6-.08-2.4V106.36a2.25,2.25,0,0,1,.7-1.52,2,2,0,0,1,1.5-.65h1.82V101.9l-12.28-.06Z"/><path class="cls-1" d="M131.12,129.63a18.35,18.35,0,0,1-1.28,2.63,8.27,8.27,0,0,1-1.65,2,7.16,7.16,0,0,1-2.26,1.3,9.48,9.48,0,0,1-3.16.47H116.4V122.49h7.7a1.63,1.63,0,0,1,1.08.52,1.48,1.48,0,0,1,.47,1.11v1.67H128V116h-2.3v1.62a1.56,1.56,0,0,1-.46,1.16,1.78,1.78,0,0,1-1.16.52h-7.69v-14h9.42a2.28,2.28,0,0,1,1.46.69,2,2,0,0,1,.57,1.45v1.83h2.3V100.5l-.68.35a6.59,6.59,0,0,1-1.11.38c-.5.13-1.06.25-1.66.36s-1.22.19-1.85.25a15.39,15.39,0,0,1-1.7.11H107.25v2.29h1.57a2.37,2.37,0,0,1,2.35,2.05v28.49a2.73,2.73,0,0,1-.76,1.73,2.15,2.15,0,0,1-1.64.66H107.2v2.3H130l3.69-10.14h-2.41Z"/><path class="cls-1" d="M175,107a17.77,17.77,0,0,0-6.1-3.81,21.89,21.89,0,0,0-7.79-1.34H142.89v2.35h1.57a2.65,2.65,0,0,1,1.7.61,1.71,1.71,0,0,1,.71,1.38v28.55a2.65,2.65,0,0,1-.76,1.67,2.16,2.16,0,0,1-1.65.67h-1.57v2.3h18.25a21.85,21.85,0,0,0,7.79-1.34,17.77,17.77,0,0,0,6.1-3.81,17.17,17.17,0,0,0,3.95-5.94,21.88,21.88,0,0,0,0-15.35A17.17,17.17,0,0,0,175,107Zm-.3,13.59a19.31,19.31,0,0,1-1,6.37A14.54,14.54,0,0,1,171,131.8a12.08,12.08,0,0,1-4.24,3.12,13.71,13.71,0,0,1-5.57,1.11H152V105.19h9.18a13.73,13.73,0,0,1,5.54,1.1,12.14,12.14,0,0,1,4.27,3.12,14.54,14.54,0,0,1,2.75,4.85A19.17,19.17,0,0,1,174.73,120.58Z"/><path class="cls-1" d="M224.59,137a3.89,3.89,0,0,1-2-.62,4.39,4.39,0,0,1-1.69-2.09L207.25,101.4l-.12-.29H205.2v.47a5,5,0,0,1-.27,1.38c-.19.61-.4,1.21-.64,1.79s-.59,1.42-.94,2.19l-11.6,27.44-.11.32a4.2,4.2,0,0,1-1.53,1.7,3.86,3.86,0,0,1-2,.62H186.8v2.29h12.07V137h-1.36a1.43,1.43,0,0,1-.93-.34,1.12,1.12,0,0,1-.37-.92,2.68,2.68,0,0,1,.09-.65l3.26-8.23H212L215.1,135a2.47,2.47,0,0,1,.13.79,1.08,1.08,0,0,1-.34.89,1.44,1.44,0,0,1-.91.32h-1.36v2.29H226V137Zm-13.8-13.44h-10l5.1-13Z"/><path class="cls-1" d="M61.86,156.12h5.36a4.35,4.35,0,0,1,3.13,1.06,2.71,2.71,0,0,1,.8,2v0a2.85,2.85,0,0,1-1.71,2.67,2.92,2.92,0,0,1,2.37,2.9v0c0,2.13-1.75,3.28-4.42,3.28H61.86Zm4.94,5c1.34,0,2.25-.53,2.25-1.63v0c0-.94-.75-1.52-2.1-1.52h-3v3.18Zm.61,5.05c1.43,0,2.3-.56,2.3-1.64v0c0-1-.8-1.61-2.45-1.61H63.93v3.28Z"/><path class="cls-1" d="M78.46,156.12h8.86V158H80.56v3.1h6V163h-6v3.21H87.4v1.88H78.46Z"/><path class="cls-1" d="M94.17,156.12h5.32a4.83,4.83,0,0,1,3.45,1.2,3.59,3.59,0,0,1,1,2.57v0a3.59,3.59,0,0,1-2.85,3.62l3.22,4.52h-2.47l-2.94-4.17H96.26v4.17H94.17ZM99.34,162c1.5,0,2.45-.78,2.45-2v0c0-1.28-.92-2-2.47-2H96.26v4Z"/><path class="cls-1" d="M115,156H117l5.25,12H120l-1.21-2.89h-5.65l-1.23,2.89h-2.15Zm3,7.28L116,158.55l-2,4.77Z"/><path class="cls-1" d="M129.93,158.07h-3.79v-1.95h9.7v1.95h-3.79v10h-2.12Z"/><path class="cls-1" d="M142.33,156.12h8.86V158h-6.76v3.1h6V163h-6v3.21h6.84v1.88h-8.94Z"/><path class="cls-1" d="M158,156.12h5.32a4.83,4.83,0,0,1,3.45,1.2,3.59,3.59,0,0,1,1,2.57v0a3.59,3.59,0,0,1-2.85,3.62l3.23,4.52H165.7l-2.94-4.17h-2.62v4.17H158Zm5.17,5.92c1.5,0,2.46-.78,2.46-2v0c0-1.28-.93-2-2.48-2h-3.05v4Z"/><path class="cls-1" d="M140.23,33.19H87.49a9,9,0,1,0,9,9H92.05a4.56,4.56,0,1,1-4.56-4.56h52.74a4.56,4.56,0,1,1-4.55,4.56h-4.42a9,9,0,1,0,9-9Z"/><rect class="cls-1" x="102.08" y="25" width="25.03" height="4.42"/><polygon class="cls-1" points="121.23 79.18 125.64 76.63 125.64 41.94 121.23 41.94 121.23 79.18"/><polygon class="cls-1" points="112.02 81.94 114.23 83.22 116.44 81.94 116.44 41.94 112.02 41.94 112.02 81.94"/><polygon class="cls-1" points="102.82 76.63 107.24 79.18 107.24 41.94 102.82 41.94 102.82 76.63"/><rect class="cls-1" x="102.08" y="16.91" width="25.03" height="4.42"/><rect class="cls-1" x="102.08" y="8.1" width="25.03" height="4.42"/><rect class="cls-1" x="102.08" width="25.03" height="4.42"/></g></g></svg>