<svg width="84" height="56" viewBox="0 0 84 56" fill="none" xmlns="http://www.w3.org/2000/svg">
<path d="M0.666667 6C0.666667 8.94552 3.05448 11.3333 6 11.3333C8.94552 11.3333 11.3333 8.94552 11.3333 6C11.3333 3.05448 8.94552 0.666667 6 0.666667C3.05448 0.666667 0.666667 3.05448 0.666667 6ZM78 6H79V5H78V6ZM72.6667 50C72.6667 52.9455 75.0545 55.3333 78 55.3333C80.9455 55.3333 83.3333 52.9455 83.3333 50C83.3333 47.0545 80.9455 44.6667 78 44.6667C75.0545 44.6667 72.6667 47.0545 72.6667 50ZM6 7H78V5H6V7ZM77 6V50H79V6H77Z" fill="#E9EAF1"/>
</svg>
