<svg width="116" height="74" viewBox="0 0 116 74" fill="none" xmlns="http://www.w3.org/2000/svg">
<path d="M104.667 6C104.667 8.94552 107.054 11.3333 110 11.3333C112.946 11.3333 115.333 8.94552 115.333 6C115.333 3.05448 112.946 0.666667 110 0.666667C107.054 0.666667 104.667 3.05448 104.667 6ZM6 6V5H5V6H6ZM0.666667 68C0.666667 70.9455 3.05448 73.3333 6 73.3333C8.94552 73.3333 11.3333 70.9455 11.3333 68C11.3333 65.0545 8.94552 62.6667 6 62.6667C3.05448 62.6667 0.666667 65.0545 0.666667 68ZM110 5H6V7H110V5ZM5 6V68H7V6H5Z" fill="#E9EAF1"/>
</svg>
