<svg width="47" height="43" viewBox="0 0 57 53" fill="none" xmlns="http://www.w3.org/2000/svg">
<path d="M56.5 26.2777C56.5 40.4768 44.003 52.0553 28.5 52.0553C12.997 52.0553 0.5 40.4768 0.5 26.2777C0.5 12.0785 12.997 0.5 28.5 0.5C44.003 0.5 56.5 12.0785 56.5 26.2777Z" fill="#273270" stroke="#273270"/>
<path d="M36.2727 23.7751C36.2727 21.7839 35.4538 19.8742 33.9961 18.4662C32.5385 17.0582 30.5615 16.2672 28.5 16.2672C26.4385 16.2672 24.4615 17.0582 23.0039 18.4662C21.5462 19.8742 20.7273 21.7839 20.7273 23.7751C20.7273 26.855 23.2785 30.8692 28.5 35.6776C33.7215 30.8692 36.2727 26.855 36.2727 23.7751ZM28.5 37.9567C22.1661 32.3958 19 27.6675 19 23.7751C19 21.3414 20.0009 19.0073 21.7825 17.2864C23.5641 15.5655 25.9804 14.5988 28.5 14.5988C31.0196 14.5988 33.4359 15.5655 35.2175 17.2864C36.9991 19.0073 38 21.3414 38 23.7751C38 27.6675 34.8339 32.3958 28.5 37.9567Z" fill="#FEEC8A"/>
<path d="M28.4999 25.216C28.9798 25.216 29.4401 25.0482 29.7794 24.7495C30.1188 24.4509 30.3094 24.0458 30.3094 23.6234C30.3094 23.201 30.1188 22.7959 29.7794 22.4973C29.4401 22.1986 28.9798 22.0308 28.4999 22.0308C28.02 22.0308 27.5597 22.1986 27.2204 22.4973C26.881 22.7959 26.6904 23.201 26.6904 23.6234C26.6904 24.0458 26.881 24.4509 27.2204 24.7495C27.5597 25.0482 28.02 25.216 28.4999 25.216ZM28.4999 26.8086C27.5401 26.8086 26.6196 26.473 25.9409 25.8757C25.2622 25.2783 24.8809 24.4682 24.8809 23.6234C24.8809 22.7786 25.2622 21.9685 25.9409 21.3711C26.6196 20.7738 27.5401 20.4382 28.4999 20.4382C29.4598 20.4382 30.3803 20.7738 31.059 21.3711C31.7377 21.9685 32.119 22.7786 32.119 23.6234C32.119 24.4682 31.7377 25.2783 31.059 25.8757C30.3803 26.473 29.4598 26.8086 28.4999 26.8086ZM38.2713 31.5863L41.1666 37.9567H33.0237V36.3641H23.9761V37.9567H15.8333L18.7285 31.5863H38.2713ZM36.3225 31.5863H20.6773L18.5059 36.3641H38.4939L36.3225 31.5863Z" fill="#FEEC8A"/>
</svg>
