<svg width="9" height="8" viewBox="0 0 9 8" fill="none" xmlns="http://www.w3.org/2000/svg">
<path d="M7.49931 2.375C7.49931 2.45312 7.49931 2.51562 7.49931 2.59375C7.49931 4.76562 5.85868 7.25 2.84306 7.25C1.90556 7.25 1.04618 6.98438 0.327434 6.51562C0.452434 6.53125 0.577434 6.54688 0.718059 6.54688C1.48368 6.54688 2.18681 6.28125 2.74931 5.84375C2.03056 5.82812 1.42118 5.35938 1.21806 4.70312C1.32743 4.71875 1.42118 4.73438 1.53056 4.73438C1.67118 4.73438 1.82743 4.70312 1.95243 4.67188C1.20243 4.51562 0.639934 3.85938 0.639934 3.0625V3.04688C0.858684 3.17188 1.12431 3.23438 1.38993 3.25C0.936809 2.95312 0.655559 2.45312 0.655559 1.89062C0.655559 1.57812 0.733684 1.29688 0.874309 1.0625C1.68681 2.04688 2.90556 2.70312 4.26493 2.78125C4.23368 2.65625 4.21806 2.53125 4.21806 2.40625C4.21806 1.5 4.95243 0.765625 5.85868 0.765625C6.32743 0.765625 6.74931 0.953125 7.06181 1.28125C7.42118 1.20312 7.78056 1.0625 8.09306 0.875C7.96806 1.26562 7.71806 1.57812 7.37431 1.78125C7.70243 1.75 8.03056 1.65625 8.31181 1.53125C8.09306 1.85938 7.81181 2.14062 7.49931 2.375Z" fill="#ADADAD"/>
</svg>
