<svg width="37" height="40" viewBox="0 0 37 40" fill="none" xmlns="http://www.w3.org/2000/svg">
<path d="M3.78577 2.29821C3.53899 2.30688 3.29633 2.36905 3.07215 2.48103C2.84797 2.59301 2.64684 2.75252 2.48065 2.95013C2.31446 3.14774 2.18661 3.37942 2.10465 3.63146C2.02269 3.8835 1.9883 4.15077 2.0035 4.41745C2.25006 8.99135 3.41241 20.1516 8.97757 27.1116C15.6417 35.4971 24.3205 38.3862 33.2248 37.9593C33.7021 37.9285 34.1508 37.7028 34.4803 37.3278C34.8097 36.9529 34.9955 36.4566 35 35.9392V28.6134C34.9944 27.9298 34.7768 27.2682 34.3821 26.7345C33.9873 26.2009 33.4383 25.8263 32.8232 25.6708L28.3641 24.6036C27.8126 24.4763 27.2384 24.5311 26.716 24.7608C26.1936 24.9905 25.7468 25.3845 25.4336 25.8919L24.4473 27.508C24.3568 27.6559 24.2214 27.765 24.0645 27.8164C23.9076 27.8679 23.7391 27.8586 23.5879 27.7901C21.3196 26.7304 12.2814 22.1565 11.2882 14.4419C11.2687 14.2929 11.2904 14.141 11.3506 14.0054C11.4108 13.8697 11.5067 13.7564 11.6263 13.6796L13.4156 12.498C13.9064 12.1689 14.2919 11.6845 14.5199 11.1105C14.748 10.5365 14.8076 9.90052 14.6907 9.28865L13.7115 4.37934C13.5683 3.69148 13.2093 3.07856 12.6956 2.64491C12.1818 2.21126 11.545 1.98368 10.8937 2.00091L3.78577 2.29821Z" stroke="#25357A" stroke-width="3"/>
</svg>
