<svg width="44" height="44" viewBox="0 0 44 44" fill="none" xmlns="http://www.w3.org/2000/svg">
<path d="M32.2666 11.5867C30.9226 10.2326 29.3228 9.15929 27.5604 8.42909C25.7979 7.69889 23.9077 7.32643 21.9999 7.33335C19.4496 7.33584 16.9445 8.00838 14.7357 9.28361C12.527 10.5588 10.6921 12.392 9.41471 14.5995C8.13735 16.807 7.46243 19.3114 7.45748 21.8618C7.45255 24.4123 8.11779 26.9192 9.38658 29.1317L7.33325 36.6667L15.0333 34.65C17.1595 35.8329 19.5486 36.4634 21.9816 36.4834C25.8494 36.4835 29.5606 34.9558 32.3073 32.233C35.0542 29.5103 36.6143 25.8126 36.6483 21.945C36.6354 20.0151 36.2416 18.1067 35.4898 16.3292C34.7379 14.5517 33.6425 12.94 32.2666 11.5867ZM21.9999 33.9717C19.8324 33.9732 17.7044 33.3905 15.8399 32.285L15.3999 32.01L10.8349 33.22L12.0449 28.765L11.7516 28.3067C10.1919 25.789 9.60978 22.7865 10.1156 19.8682C10.6213 16.95 12.1799 14.3186 14.4959 12.4726C16.812 10.6265 19.7246 9.69406 22.6821 9.85178C25.6396 10.0095 28.4368 11.2464 30.5433 13.3283C32.8459 15.58 34.1641 18.6514 34.2099 21.8717C34.181 25.0908 32.8817 28.1683 30.595 30.4345C28.3084 32.7005 25.2193 33.9719 21.9999 33.9717ZM28.6182 24.915C28.2516 24.7317 26.4733 23.8517 26.1433 23.7417C25.8133 23.6317 25.5566 23.5584 25.3183 23.925C24.9597 24.4165 24.5739 24.8877 24.1633 25.3367C23.9616 25.5934 23.7416 25.6117 23.3749 25.3367C21.2844 24.5106 19.5427 22.9889 18.4433 21.0284C18.0583 20.3867 18.8099 20.4234 19.5066 19.0484C19.5581 18.9492 19.5849 18.8392 19.5849 18.7275C19.5849 18.6159 19.5581 18.5059 19.5066 18.4067C19.5066 18.2233 18.6816 16.4267 18.3883 15.7117C18.0949 14.9967 17.8016 15.1067 17.5633 15.0883H16.8483C16.663 15.0912 16.4805 15.1336 16.3129 15.2126C16.1454 15.2916 15.9966 15.4055 15.8766 15.5467C15.4652 15.9467 15.1444 16.4302 14.9356 16.9647C14.7269 17.4991 14.6352 18.0721 14.6666 18.645C14.7815 20.0165 15.298 21.3237 16.1516 22.4034C17.714 24.7423 19.8551 26.6371 22.3666 27.9034C23.6838 28.6723 25.2147 28.9938 26.7299 28.82C27.2345 28.7199 27.7124 28.5148 28.1324 28.2178C28.5526 27.921 28.9055 27.5389 29.1683 27.0967C29.4117 26.557 29.4884 25.9569 29.3883 25.3734C29.2233 25.19 28.9849 25.0984 28.6182 24.915Z" fill="#FEEC8A"/>
</svg>
