<svg width="40" height="40" viewBox="0 0 40 40" fill="none" xmlns="http://www.w3.org/2000/svg">
<path d="M34 5.80001C32.1673 3.95356 29.9858 2.48993 27.5825 1.49421C25.179 0.498482 22.6015 -0.00941826 20 6.73553e-06C16.5222 0.00340674 13.1062 0.920506 10.0943 2.65946C7.08235 4.39841 4.5802 6.89818 2.83835 9.90841C1.0965 12.9187 0.17615 16.3338 0.1694 19.8115C0.162675 23.2895 1.06982 26.708 2.8 29.725L0 40L10.5 37.25C13.3994 38.863 16.6572 39.7228 19.975 39.75C25.2492 39.7503 30.31 37.667 34.0555 33.954C37.8013 30.2413 39.9287 25.199 39.975 19.925C39.9575 17.2933 39.4205 14.6909 38.3953 12.267C37.37 9.84316 35.8763 7.64551 34 5.80001ZM20 36.325C17.0443 36.327 14.1425 35.5325 11.6 34.025L11 33.65L4.775 35.3L6.425 29.225L6.025 28.6C3.89812 25.1668 3.10435 21.0725 3.79405 17.093C4.48375 13.1137 6.60902 9.5254 9.76725 7.00808C12.9255 4.49073 16.8972 3.21916 20.9303 3.43423C24.9632 3.64928 28.7775 5.33606 31.65 8.17501C34.79 11.2455 36.5875 15.4338 36.65 19.825C36.6105 24.2148 34.8387 28.4113 31.7205 31.5015C28.6025 34.5915 24.39 36.3253 20 36.325ZM29.025 23.975C28.525 23.725 26.1 22.525 25.65 22.375C25.2 22.225 24.85 22.125 24.525 22.625C24.036 23.2953 23.51 23.9378 22.95 24.55C22.675 24.9 22.375 24.925 21.875 24.55C19.0243 23.4235 16.6493 21.3485 15.15 18.675C14.625 17.8 15.65 17.85 16.6 15.975C16.6702 15.8398 16.7068 15.6898 16.7068 15.5375C16.7068 15.3853 16.6702 15.2353 16.6 15.1C16.6 14.85 15.475 12.4 15.075 11.425C14.675 10.45 14.275 10.6 13.95 10.575H12.975C12.7224 10.5789 12.4735 10.6367 12.245 10.7444C12.0165 10.8522 11.8136 11.0075 11.65 11.2C11.089 11.7455 10.6515 12.4048 10.3669 13.1336C10.0823 13.8624 9.95718 14.6438 10 15.425C10.1567 17.2953 10.8611 19.0778 12.025 20.55C14.1555 23.7395 17.0752 26.3233 20.5 28.05C22.2962 29.0985 24.3837 29.537 26.45 29.3C27.138 29.1635 27.7898 28.8838 28.3625 28.4788C28.9355 28.074 29.4167 27.553 29.775 26.95C30.107 26.214 30.2115 25.3958 30.075 24.6C29.85 24.35 29.525 24.225 29.025 23.975Z" fill="#25357A"/>
</svg>
