<svg width="360" height="224" viewBox="0 0 360 224" fill="none" xmlns="http://www.w3.org/2000/svg">
<path d="M186.221 98.2652C191.316 92.8718 191.316 84.1272 186.221 78.7338C181.126 73.3403 172.865 73.3403 167.77 78.7338C162.675 84.1272 162.675 92.8718 167.77 98.2652C172.865 103.659 181.126 103.659 186.221 98.2652Z" stroke="#C8A75A" stroke-opacity="0.3" stroke-width="0.4" stroke-linecap="round" stroke-linejoin="round"/>
<path d="M181.386 75.5045V64.4668H172.604V75.5045" stroke="#C8A75A" stroke-opacity="0.3" stroke-width="0.4" stroke-linecap="round" stroke-linejoin="round"/>
<path d="M183.017 60.4822H170.978V64.4665H183.017V60.4822Z" stroke="#C8A75A" stroke-opacity="0.3" stroke-width="0.4" stroke-linecap="round" stroke-linejoin="round"/>
<path d="M179.377 55.438H174.612V60.482H179.377V55.438Z" stroke="#C8A75A" stroke-opacity="0.3" stroke-width="0.4" stroke-linecap="round" stroke-linejoin="round"/>
<path d="M177.999 1H175.99V55.4382H177.999V1Z" stroke="#C8A75A" stroke-opacity="0.3" stroke-width="0.4" stroke-linecap="round" stroke-linejoin="round"/>
<path d="M172.064 101.282V105.892H181.932V101.282" stroke="#C8A75A" stroke-opacity="0.3" stroke-width="0.4" stroke-linecap="round" stroke-linejoin="round"/>
<path d="M183.518 105.893H170.471V109.877H183.518V105.893Z" stroke="#C8A75A" stroke-opacity="0.3" stroke-width="0.4" stroke-linecap="round" stroke-linejoin="round"/>
<path d="M172.064 109.877L168.97 222.903" stroke="#C8A75A" stroke-opacity="0.3" stroke-width="0.4" stroke-linecap="round" stroke-linejoin="round"/>
<path d="M181.932 109.877L185.026 222.903" stroke="#C8A75A" stroke-opacity="0.3" stroke-width="0.4" stroke-linecap="round" stroke-linejoin="round"/>
<path d="M49.5233 186.7L75.1937 174.182L100.864 186.7H49.5233Z" stroke="#C8A75A" stroke-opacity="0.3" stroke-width="0.4" stroke-linecap="round" stroke-linejoin="round"/>
<path d="M51.3887 185.791V172.524H98.9917V185.791" stroke="#C8A75A" stroke-opacity="0.3" stroke-width="0.4" stroke-linecap="round" stroke-linejoin="round"/>
<path d="M56.3162 172.51C56.3162 167.218 58.3023 162.142 61.8376 158.399C65.3729 154.657 70.1679 152.554 75.1676 152.554C80.1673 152.554 84.9622 154.657 88.4975 158.399C92.0328 162.142 94.019 167.218 94.019 172.51" stroke="#C8A75A" stroke-opacity="0.3" stroke-width="0.4" stroke-linecap="round" stroke-linejoin="round"/>
<path d="M61.9 172.51C61.9 161.5 67.8545 152.554 75.1935 152.554C82.5326 152.554 88.487 161.5 88.487 172.51" stroke="#C8A75A" stroke-opacity="0.3" stroke-width="0.4" stroke-linecap="round" stroke-linejoin="round"/>
<path d="M68.7776 172.51C68.7776 161.5 71.6508 152.554 75.1936 152.554C78.7363 152.554 81.6095 161.5 81.6095 172.51" stroke="#C8A75A" stroke-opacity="0.3" stroke-width="0.4" stroke-linecap="round" stroke-linejoin="round"/>
<path d="M53.9564 164.012H51.3887V172.524H53.9564V164.012Z" stroke="#C8A75A" stroke-opacity="0.3" stroke-width="0.4" stroke-linecap="round" stroke-linejoin="round"/>
<path d="M98.9918 164.012H96.4241V172.524H98.9918V164.012Z" stroke="#C8A75A" stroke-opacity="0.3" stroke-width="0.4" stroke-linecap="round" stroke-linejoin="round"/>
<path d="M57.3694 190.491H50.5504V222.902H57.3694V190.491Z" stroke="#C8A75A" stroke-opacity="0.3" stroke-width="0.4" stroke-linecap="round" stroke-linejoin="round"/>
<path d="M65.1503 190.491H61.5425V222.902H65.1503V190.491Z" stroke="#C8A75A" stroke-opacity="0.3" stroke-width="0.4" stroke-linecap="round" stroke-linejoin="round"/>
<path d="M72.3854 190.491H68.7776V222.902H72.3854V190.491Z" stroke="#C8A75A" stroke-opacity="0.3" stroke-width="0.4" stroke-linecap="round" stroke-linejoin="round"/>
<path d="M92.8944 222.902H99.7134V190.491H92.8944V222.902Z" stroke="#C8A75A" stroke-opacity="0.3" stroke-width="0.4" stroke-linecap="round" stroke-linejoin="round"/>
<path d="M85.1133 222.902H88.7211V190.491H85.1133V222.902Z" stroke="#C8A75A" stroke-opacity="0.3" stroke-width="0.4" stroke-linecap="round" stroke-linejoin="round"/>
<path d="M77.8782 222.902H81.486V190.491H77.8782V222.902Z" stroke="#C8A75A" stroke-opacity="0.3" stroke-width="0.4" stroke-linecap="round" stroke-linejoin="round"/>
<path d="M99.7136 186.699H50.5504V190.491H99.7136V186.699Z" stroke="#C8A75A" stroke-opacity="0.3" stroke-width="0.4" stroke-linecap="round" stroke-linejoin="round"/>
<path d="M51.389 184.264H-13.5638V192.556H50.5504" stroke="#C8A75A" stroke-opacity="0.3" stroke-width="0.4" stroke-linecap="round" stroke-linejoin="round"/>
<path d="M28.7738 177.616H25.582V184.27H28.7738V177.616Z" stroke="#C8A75A" stroke-opacity="0.3" stroke-width="0.4" stroke-linecap="round" stroke-linejoin="round"/>
<path d="M36.6002 177.616H33.4084V184.27H36.6002V177.616Z" stroke="#C8A75A" stroke-opacity="0.3" stroke-width="0.4" stroke-linecap="round" stroke-linejoin="round"/>
<path d="M44.4332 177.616H41.2415V184.27H44.4332V177.616Z" stroke="#C8A75A" stroke-opacity="0.3" stroke-width="0.4" stroke-linecap="round" stroke-linejoin="round"/>
<path d="M21.6166 176.129H-9.89124V184.263H21.6166V176.129Z" stroke="#C8A75A" stroke-opacity="0.3" stroke-width="0.4" stroke-linecap="round" stroke-linejoin="round"/>
<path d="M11.7619 169.634H7.02307V176.13H11.7619V169.634Z" stroke="#C8A75A" stroke-opacity="0.3" stroke-width="0.4" stroke-linecap="round" stroke-linejoin="round"/>
<path d="M11.7619 166.978H-9.89124V169.641H11.7619V166.978Z" stroke="#C8A75A" stroke-opacity="0.3" stroke-width="0.4" stroke-linecap="round" stroke-linejoin="round"/>
<path d="M-13.5638 222.902V211.995H50.5504V222.902" stroke="#C8A75A" stroke-opacity="0.3" stroke-width="0.4" stroke-linecap="round" stroke-linejoin="round"/>
<path d="M13.8809 192.555H3.73364V211.995H13.8809V192.555Z" stroke="#C8A75A" stroke-opacity="0.3" stroke-width="0.4" stroke-linecap="round" stroke-linejoin="round"/>
<path d="M50.5503 199.203H13.8876V203.091H50.5503V199.203Z" stroke="#C8A75A" stroke-opacity="0.3" stroke-width="0.4" stroke-linecap="round" stroke-linejoin="round"/>
<path d="M22.0003 192.555H18.49V199.21H22.0003V192.555Z" stroke="#C8A75A" stroke-opacity="0.3" stroke-width="0.4" stroke-linecap="round" stroke-linejoin="round"/>
<path d="M29.0923 192.555H25.582V199.21H29.0923V192.555Z" stroke="#C8A75A" stroke-opacity="0.3" stroke-width="0.4" stroke-linecap="round" stroke-linejoin="round"/>
<path d="M36.1777 192.555H32.6675V199.21H36.1777V192.555Z" stroke="#C8A75A" stroke-opacity="0.3" stroke-width="0.4" stroke-linecap="round" stroke-linejoin="round"/>
<path d="M43.2697 192.555H39.7594V199.21H43.2697V192.555Z" stroke="#C8A75A" stroke-opacity="0.3" stroke-width="0.4" stroke-linecap="round" stroke-linejoin="round"/>
<path d="M22.0003 203.091H18.49V211.995H22.0003V203.091Z" stroke="#C8A75A" stroke-opacity="0.3" stroke-width="0.4" stroke-linecap="round" stroke-linejoin="round"/>
<path d="M29.0923 203.091H25.582V211.995H29.0923V203.091Z" stroke="#C8A75A" stroke-opacity="0.3" stroke-width="0.4" stroke-linecap="round" stroke-linejoin="round"/>
<path d="M36.1777 203.091H32.6675V211.995H36.1777V203.091Z" stroke="#C8A75A" stroke-opacity="0.3" stroke-width="0.4" stroke-linecap="round" stroke-linejoin="round"/>
<path d="M43.2697 203.091H39.7594V211.995H43.2697V203.091Z" stroke="#C8A75A" stroke-opacity="0.3" stroke-width="0.4" stroke-linecap="round" stroke-linejoin="round"/>
<path d="M3.74019 199.203H-2.54578V204.219H3.74019V199.203Z" stroke="#C8A75A" stroke-opacity="0.3" stroke-width="0.4" stroke-linecap="round" stroke-linejoin="round"/>
<path d="M98.9919 184.264H163.951V192.556H99.837" stroke="#C8A75A" stroke-opacity="0.3" stroke-width="0.4" stroke-linecap="round" stroke-linejoin="round"/>
<path d="M121.613 184.264H124.805V177.61H121.613V184.264Z" stroke="#C8A75A" stroke-opacity="0.3" stroke-width="0.4" stroke-linecap="round" stroke-linejoin="round"/>
<path d="M113.787 184.264H116.979V177.61H113.787V184.264Z" stroke="#C8A75A" stroke-opacity="0.3" stroke-width="0.4" stroke-linecap="round" stroke-linejoin="round"/>
<path d="M105.954 184.264H109.146V177.61H105.954V184.264Z" stroke="#C8A75A" stroke-opacity="0.3" stroke-width="0.4" stroke-linecap="round" stroke-linejoin="round"/>
<path d="M128.771 184.271H160.279V176.137H128.771V184.271Z" stroke="#C8A75A" stroke-opacity="0.3" stroke-width="0.4" stroke-linecap="round" stroke-linejoin="round"/>
<path d="M155.546 176.137H160.285V169.641H155.546V176.137Z" stroke="#C8A75A" stroke-opacity="0.3" stroke-width="0.4" stroke-linecap="round" stroke-linejoin="round"/>
<path d="M138.625 176.137H143.364V169.641H138.625V176.137Z" stroke="#C8A75A" stroke-opacity="0.3" stroke-width="0.4" stroke-linecap="round" stroke-linejoin="round"/>
<path d="M138.625 169.634H160.279V166.971H138.625V169.634Z" stroke="#C8A75A" stroke-opacity="0.3" stroke-width="0.4" stroke-linecap="round" stroke-linejoin="round"/>
<path d="M163.951 222.902V211.995H99.8368V222.902" stroke="#C8A75A" stroke-opacity="0.3" stroke-width="0.4" stroke-linecap="round" stroke-linejoin="round"/>
<path d="M152.933 211.995H160.76V192.556H152.933V211.995Z" stroke="#C8A75A" stroke-opacity="0.3" stroke-width="0.4" stroke-linecap="round" stroke-linejoin="round"/>
<path d="M136.506 211.995H146.653V192.556H136.506V211.995Z" stroke="#C8A75A" stroke-opacity="0.3" stroke-width="0.4" stroke-linecap="round" stroke-linejoin="round"/>
<path d="M99.8369 203.097H136.5V199.209H99.8369V203.097Z" stroke="#C8A75A" stroke-opacity="0.3" stroke-width="0.4" stroke-linecap="round" stroke-linejoin="round"/>
<path d="M128.387 199.203H131.897V192.549H128.387V199.203Z" stroke="#C8A75A" stroke-opacity="0.3" stroke-width="0.4" stroke-linecap="round" stroke-linejoin="round"/>
<path d="M121.295 199.203H124.805V192.549H121.295V199.203Z" stroke="#C8A75A" stroke-opacity="0.3" stroke-width="0.4" stroke-linecap="round" stroke-linejoin="round"/>
<path d="M114.209 199.203H117.72V192.549H114.209V199.203Z" stroke="#C8A75A" stroke-opacity="0.3" stroke-width="0.4" stroke-linecap="round" stroke-linejoin="round"/>
<path d="M107.117 199.203H110.628V192.549H107.117V199.203Z" stroke="#C8A75A" stroke-opacity="0.3" stroke-width="0.4" stroke-linecap="round" stroke-linejoin="round"/>
<path d="M128.387 211.995H131.897V203.091H128.387V211.995Z" stroke="#C8A75A" stroke-opacity="0.3" stroke-width="0.4" stroke-linecap="round" stroke-linejoin="round"/>
<path d="M121.295 211.995H124.805V203.091H121.295V211.995Z" stroke="#C8A75A" stroke-opacity="0.3" stroke-width="0.4" stroke-linecap="round" stroke-linejoin="round"/>
<path d="M114.209 211.995H117.72V203.091H114.209V211.995Z" stroke="#C8A75A" stroke-opacity="0.3" stroke-width="0.4" stroke-linecap="round" stroke-linejoin="round"/>
<path d="M107.117 211.995H110.628V203.091H107.117V211.995Z" stroke="#C8A75A" stroke-opacity="0.3" stroke-width="0.4" stroke-linecap="round" stroke-linejoin="round"/>
<path d="M146.647 204.22H152.933V199.203H146.647V204.22Z" stroke="#C8A75A" stroke-opacity="0.3" stroke-width="0.4" stroke-linecap="round" stroke-linejoin="round"/>
<path d="M163.951 222.902H168.97" stroke="#C8A75A" stroke-opacity="0.3" stroke-width="0.4" stroke-linecap="round" stroke-linejoin="round"/>
<path d="M260.054 148.006H231.537V151.467H260.054V148.006Z" stroke="#C8A75A" stroke-opacity="0.3" stroke-width="0.4" stroke-linecap="round" stroke-linejoin="round"/>
<path d="M248.958 136.094H242.639V148.006H248.958V136.094Z" stroke="#C8A75A" stroke-opacity="0.3" stroke-width="0.4" stroke-linecap="round" stroke-linejoin="round"/>
<path d="M249.543 130.066H242.048V133.177H249.543V130.066Z" stroke="#C8A75A" stroke-opacity="0.3" stroke-width="0.4" stroke-linecap="round" stroke-linejoin="round"/>
<path d="M248.002 133.3H243.595V136.094H248.002V133.3Z" stroke="#C8A75A" stroke-opacity="0.3" stroke-width="0.4" stroke-linecap="round" stroke-linejoin="round"/>
<path d="M234.475 133.645C234.475 133.645 233.669 140.725 238.668 141.503V148.006H235.359V144.696C235.359 144.696 230.068 141.193 234.475 133.645Z" stroke="#C8A75A" stroke-opacity="0.3" stroke-width="0.4" stroke-linecap="round" stroke-linejoin="round"/>
<path d="M257.116 133.645C257.116 133.645 257.922 140.725 252.923 141.503V148.006H256.232V144.696C256.232 144.696 261.523 141.193 257.116 133.645Z" stroke="#C8A75A" stroke-opacity="0.3" stroke-width="0.4" stroke-linecap="round" stroke-linejoin="round"/>
<path d="M199.32 174.946H192.332V179.199H199.32V174.946Z" stroke="#C8A75A" stroke-opacity="0.3" stroke-width="0.4" stroke-linecap="round" stroke-linejoin="round"/>
<path d="M204.007 222.902V181.869H192.332V222.902" stroke="#C8A75A" stroke-opacity="0.3" stroke-width="0.4" stroke-linecap="round" stroke-linejoin="round"/>
<path d="M219.647 187.594H210.501V222.902H219.647V187.594Z" stroke="#C8A75A" stroke-opacity="0.3" stroke-width="0.4" stroke-linecap="round" stroke-linejoin="round"/>
<path d="M237.784 187.594H228.637V222.902H237.784V187.594Z" stroke="#C8A75A" stroke-opacity="0.3" stroke-width="0.4" stroke-linecap="round" stroke-linejoin="round"/>
<path d="M196.194 164.824H245.799" stroke="#C8A75A" stroke-opacity="0.3" stroke-width="0.4" stroke-linecap="round" stroke-linejoin="round"/>
<path d="M245.799 156.807H192.332V161.679H245.799H299.259V156.807H245.799Z" stroke="#C8A75A" stroke-opacity="0.3" stroke-width="0.4" stroke-linecap="round" stroke-linejoin="round"/>
<path d="M245.799 161.679H196.194V167.969H245.799H295.397V161.679H245.799Z" stroke="#C8A75A" stroke-opacity="0.3" stroke-width="0.4" stroke-linecap="round" stroke-linejoin="round"/>
<path d="M260.054 151.46H245.799H231.537L192.332 156.807H245.799H299.259L260.054 151.46Z" stroke="#C8A75A" stroke-opacity="0.3" stroke-width="0.4" stroke-linecap="round" stroke-linejoin="round"/>
<path d="M245.799 167.968H186.885L192.332 174.946H245.799H299.259L304.713 167.968H245.799Z" stroke="#C8A75A" stroke-opacity="0.3" stroke-width="0.4" stroke-linecap="round" stroke-linejoin="round"/>
<path d="M245.799 179.199H192.332V181.869H245.799H299.259V179.199H245.799Z" stroke="#C8A75A" stroke-opacity="0.3" stroke-width="0.4" stroke-linecap="round" stroke-linejoin="round"/>
<path d="M292.271 179.192H299.259V174.94H292.271V179.192Z" stroke="#C8A75A" stroke-opacity="0.3" stroke-width="0.4" stroke-linecap="round" stroke-linejoin="round"/>
<path d="M287.59 222.902V181.869H299.259V222.902" stroke="#C8A75A" stroke-opacity="0.3" stroke-width="0.4" stroke-linecap="round" stroke-linejoin="round"/>
<path d="M271.944 222.909H281.09V187.601H271.944V222.909Z" stroke="#C8A75A" stroke-opacity="0.3" stroke-width="0.4" stroke-linecap="round" stroke-linejoin="round"/>
<path d="M253.807 222.909H262.953V187.601H253.807V222.909Z" stroke="#C8A75A" stroke-opacity="0.3" stroke-width="0.4" stroke-linecap="round" stroke-linejoin="round"/>
<path d="M245.799 181.869H204.007V187.594H245.799H287.591V181.869H245.799Z" stroke="#C8A75A" stroke-opacity="0.3" stroke-width="0.4" stroke-linecap="round" stroke-linejoin="round"/>
<path d="M295.397 164.824H245.799" stroke="#C8A75A" stroke-opacity="0.3" stroke-width="0.4" stroke-linecap="round" stroke-linejoin="round"/>
<path d="M192.332 222.902H185.026" stroke="#C8A75A" stroke-opacity="0.3" stroke-width="0.4" stroke-linecap="round" stroke-linejoin="round"/>
<path d="M385.513 222.902V88.9707C385.513 88.9707 358.861 98.9555 358.861 117.831V222.902" stroke="#C8A75A" stroke-opacity="0.3" stroke-width="0.4" stroke-linecap="round" stroke-linejoin="round"/>
<path d="M337.631 99.8848H345.295" stroke="#C8A75A" stroke-opacity="0.3" stroke-width="0.4" stroke-linecap="round" stroke-linejoin="round"/>
<path d="M337.631 106.842H345.295" stroke="#C8A75A" stroke-opacity="0.3" stroke-width="0.4" stroke-linecap="round" stroke-linejoin="round"/>
<path d="M337.631 113.799H345.295" stroke="#C8A75A" stroke-opacity="0.3" stroke-width="0.4" stroke-linecap="round" stroke-linejoin="round"/>
<path d="M337.631 120.756H345.295" stroke="#C8A75A" stroke-opacity="0.3" stroke-width="0.4" stroke-linecap="round" stroke-linejoin="round"/>
<path d="M337.631 127.713H345.295" stroke="#C8A75A" stroke-opacity="0.3" stroke-width="0.4" stroke-linecap="round" stroke-linejoin="round"/>
<path d="M337.631 134.67H345.295" stroke="#C8A75A" stroke-opacity="0.3" stroke-width="0.4" stroke-linecap="round" stroke-linejoin="round"/>
<path d="M337.631 141.627H345.295" stroke="#C8A75A" stroke-opacity="0.3" stroke-width="0.4" stroke-linecap="round" stroke-linejoin="round"/>
<path d="M337.631 148.584H345.295" stroke="#C8A75A" stroke-opacity="0.3" stroke-width="0.4" stroke-linecap="round" stroke-linejoin="round"/>
<path d="M337.631 155.541H345.295" stroke="#C8A75A" stroke-opacity="0.3" stroke-width="0.4" stroke-linecap="round" stroke-linejoin="round"/>
<path d="M337.631 162.498H345.295" stroke="#C8A75A" stroke-opacity="0.3" stroke-width="0.4" stroke-linecap="round" stroke-linejoin="round"/>
<path d="M337.631 169.455H345.295" stroke="#C8A75A" stroke-opacity="0.3" stroke-width="0.4" stroke-linecap="round" stroke-linejoin="round"/>
<path d="M337.631 176.412H345.295" stroke="#C8A75A" stroke-opacity="0.3" stroke-width="0.4" stroke-linecap="round" stroke-linejoin="round"/>
<path d="M337.631 183.369H345.295" stroke="#C8A75A" stroke-opacity="0.3" stroke-width="0.4" stroke-linecap="round" stroke-linejoin="round"/>
<path d="M337.631 190.333H345.295" stroke="#C8A75A" stroke-opacity="0.3" stroke-width="0.4" stroke-linecap="round" stroke-linejoin="round"/>
<path d="M337.631 197.29H345.295" stroke="#C8A75A" stroke-opacity="0.3" stroke-width="0.4" stroke-linecap="round" stroke-linejoin="round"/>
<path d="M337.631 204.247H345.295" stroke="#C8A75A" stroke-opacity="0.3" stroke-width="0.4" stroke-linecap="round" stroke-linejoin="round"/>
<path d="M337.631 211.204H345.295" stroke="#C8A75A" stroke-opacity="0.3" stroke-width="0.4" stroke-linecap="round" stroke-linejoin="round"/>
<path d="M337.631 218.161H345.295" stroke="#C8A75A" stroke-opacity="0.3" stroke-width="0.4" stroke-linecap="round" stroke-linejoin="round"/>
<path d="M304.589 222.903V202.713H319.482V102.19L345.685 74.4517V222.903" stroke="#C8A75A" stroke-opacity="0.3" stroke-width="0.4" stroke-linecap="round" stroke-linejoin="round"/>
<path d="M345.685 94.0356H337.241V222.902" stroke="#C8A75A" stroke-opacity="0.3" stroke-width="0.4" stroke-linecap="round" stroke-linejoin="round"/>
<path d="M345.685 84.9661H352.133V222.902" stroke="#C8A75A" stroke-opacity="0.3" stroke-width="0.4" stroke-linecap="round" stroke-linejoin="round"/>
<path d="M331.17 89.8101V55.314H335.935V84.9656" stroke="#C8A75A" stroke-opacity="0.3" stroke-width="0.4" stroke-linecap="round" stroke-linejoin="round"/>
<path d="M299.259 222.902H304.589" stroke="#C8A75A" stroke-opacity="0.3" stroke-width="0.4" stroke-linecap="round" stroke-linejoin="round"/>
<path d="M352.134 222.902H358.862" stroke="#C8A75A" stroke-opacity="0.3" stroke-width="0.4" stroke-linecap="round" stroke-linejoin="round"/>
</svg>
