<svg width="67" height="77" viewBox="0 0 67 77" fill="none" xmlns="http://www.w3.org/2000/svg">
<path d="M6.68664 65.1287C7.15377 63.691 9.1877 63.691 9.65483 65.1287C9.86373 65.7716 10.4629 66.2069 11.1389 66.2069C12.6506 66.2069 13.2791 68.1413 12.0561 69.0299C11.5092 69.4272 11.2804 70.1316 11.4893 70.7745C11.9564 72.2122 10.3109 73.4077 9.08795 72.5192C8.54103 72.1218 7.80044 72.1218 7.25351 72.5192C6.03055 73.4077 4.38506 72.2122 4.85219 70.7745C5.0611 70.1316 4.83224 69.4272 4.28532 69.0299C3.06236 68.1413 3.69087 66.2069 5.20254 66.2069C5.87858 66.2069 6.47773 65.7716 6.68664 65.1287Z" fill="#FFA928"/>
<path d="M31.1988 65.1287C31.666 63.691 33.6999 63.691 34.167 65.1287C34.3759 65.7716 34.9751 66.2069 35.6511 66.2069C37.1628 66.2069 37.7913 68.1413 36.5684 69.0299C36.0214 69.4272 35.7926 70.1316 36.0015 70.7745C36.4686 72.2122 34.8231 73.4077 33.6002 72.5192C33.0532 72.1218 32.3126 72.1218 31.7657 72.5192C30.5428 73.4077 28.8973 72.2122 29.3644 70.7745C29.5733 70.1316 29.3444 69.4272 28.7975 69.0299C27.5746 68.1413 28.2031 66.2069 29.7147 66.2069C30.3908 66.2069 30.9899 65.7716 31.1988 65.1287Z" fill="#FFA928"/>
<path d="M19.7598 65.1287C20.2269 63.691 22.2608 63.691 22.7279 65.1287C22.9369 65.7716 23.536 66.2069 24.212 66.2069C25.7237 66.2069 26.3522 68.1413 25.1293 69.0299C24.5823 69.4272 24.3535 70.1316 24.5624 70.7745C25.0295 72.2122 23.384 73.4077 22.1611 72.5192C21.6141 72.1218 20.8736 72.1218 20.3266 72.5192C19.1037 73.4077 17.4582 72.2122 17.9253 70.7745C18.1342 70.1316 17.9054 69.4272 17.3584 69.0299C16.1355 68.1413 16.764 66.2069 18.2757 66.2069C18.9517 66.2069 19.5508 65.7716 19.7598 65.1287Z" fill="#FFA928"/>
<path d="M44.272 65.1287C44.7391 63.691 46.773 63.691 47.2402 65.1287C47.4491 65.7716 48.0482 66.2069 48.7242 66.2069C50.2359 66.2069 50.8644 68.1413 49.6415 69.0299C49.0945 69.4272 48.8657 70.1316 49.0746 70.7745C49.5417 72.2122 47.8962 73.4077 46.6733 72.5192C46.1264 72.1218 45.3858 72.1218 44.8388 72.5192C43.6159 73.4077 41.9704 72.2122 42.4375 70.7745C42.6464 70.1316 42.4176 69.4272 41.8706 69.0299C40.6477 68.1413 41.2762 66.2069 42.7879 66.2069C43.4639 66.2069 44.0631 65.7716 44.272 65.1287Z" fill="#FFA928"/>
<path d="M57.3452 65.1287C57.8123 63.691 59.8463 63.691 60.3134 65.1287C60.5223 65.7716 61.1215 66.2069 61.7975 66.2069C63.3092 66.2069 63.9377 68.1413 62.7147 69.0299C62.1678 69.4272 61.9389 70.1316 62.1478 70.7745C62.615 72.2122 60.9695 73.4077 59.7465 72.5192C59.1996 72.1218 58.459 72.1218 57.9121 72.5192C56.6891 73.4077 55.0436 72.2122 55.5108 70.7745C55.7197 70.1316 55.4908 69.4272 54.9439 69.0299C53.7209 68.1413 54.3494 66.2069 55.8611 66.2069C56.5371 66.2069 57.1363 65.7716 57.3452 65.1287Z" fill="#FFA928"/>
<circle cx="34.3171" cy="27.8781" r="27.7805" fill="#D9D9D9"/>
<path fill-rule="evenodd" clip-rule="evenodd" d="M34.3944 21.3416C37.1019 21.3416 39.2968 19.1467 39.2968 16.4392C39.2968 13.7316 37.1019 11.5367 34.3944 11.5367C31.6868 11.5367 29.4919 13.7316 29.4919 16.4392C29.4919 19.1467 31.6868 21.3416 34.3944 21.3416ZM34.3944 24.6099C38.907 24.6099 42.5651 20.9517 42.5651 16.4392C42.5651 11.9266 38.907 8.26843 34.3944 8.26843C29.8818 8.26843 26.2237 11.9266 26.2237 16.4392C26.2237 20.9517 29.8818 24.6099 34.3944 24.6099Z" fill="#777777"/>
<path fill-rule="evenodd" clip-rule="evenodd" d="M23.1508 32.2056C25.4263 28.9405 29.0458 26.244 34.3944 26.244C39.743 26.244 43.3625 28.9405 45.638 32.2056C47.8727 35.4122 48.8571 39.2082 49.0947 41.758L49.1884 42.7646L48.3296 43.2979C36.1095 50.8856 24.6494 46.4868 20.3333 43.2114L19.6099 42.6623L19.6941 41.758C19.9317 39.2082 20.9161 35.4122 23.1508 32.2056ZM23.0662 41.1355C27.0005 43.6689 35.9569 46.6104 45.7095 41.0546C45.3713 38.9973 44.5252 36.3251 42.9566 34.0743C41.1577 31.493 38.4585 29.5123 34.3944 29.5123C30.3303 29.5123 27.6311 31.493 25.8321 34.0743C24.2429 36.3547 23.3953 39.0677 23.0662 41.1355Z" fill="#777777"/>
</svg>
