<svg width="147" height="48" viewBox="0 0 147 48" fill="none" xmlns="http://www.w3.org/2000/svg">
<path d="M141.333 3.5C141.333 4.97276 142.527 6.16667 144 6.16667C145.473 6.16667 146.667 4.97276 146.667 3.5C146.667 2.02724 145.473 0.833333 144 0.833333C142.527 0.833333 141.333 2.02724 141.333 3.5ZM144 24V24.5H144.5V24H144ZM3 24V23.5H2.5V24H3ZM0.333333 45C0.333333 46.4728 1.52724 47.6667 3 47.6667C4.47276 47.6667 5.66667 46.4728 5.66667 45C5.66667 43.5272 4.47276 42.3333 3 42.3333C1.52724 42.3333 0.333333 43.5272 0.333333 45ZM143.5 3.5V24H144.5V3.5H143.5ZM144 23.5H3V24.5H144V23.5ZM2.5 24V45H3.5V24H2.5Z" fill="#FEEC8A"/>
</svg>
