<svg width="147vh" height="48vh" viewBox="0 0 147 48" fill="none" xmlns="http://www.w3.org/2000/svg">
<path d="M5.66667 3C5.66667 4.47276 4.47276 5.66667 3 5.66667C1.52724 5.66667 0.333328 4.47276 0.333328 3C0.333328 1.52724 1.52724 0.333333 3 0.333333C4.47276 0.333333 5.66667 1.52724 5.66667 3ZM3 23.5V24H2.5V23.5H3ZM144 23.5V23H144.5V23.5H144ZM146.667 44.5C146.667 45.9728 145.473 47.1667 144 47.1667C142.527 47.1667 141.333 45.9728 141.333 44.5C141.333 43.0272 142.527 41.8333 144 41.8333C145.473 41.8333 146.667 43.0272 146.667 44.5ZM3.5 3V23.5H2.5V3H3.5ZM3 23H144V24H3V23ZM144.5 23.5V44.5H143.5V23.5H144.5Z" fill="#FEEC8A"/>
</svg>
