<svg width="14" height="14" viewBox="0 0 14 14" fill="none" xmlns="http://www.w3.org/2000/svg">
<path d="M1.36332 1.11205C1.27144 1.11484 1.1811 1.13488 1.09764 1.17097C1.01418 1.20706 0.9393 1.25848 0.87743 1.32217C0.815559 1.38586 0.767959 1.46053 0.737446 1.54177C0.706934 1.623 0.694129 1.70915 0.699791 1.7951C0.791583 3.26931 1.22432 6.8664 3.2962 9.10966C5.77721 11.8124 9.00829 12.7436 12.3233 12.606C12.501 12.5961 12.668 12.5233 12.7907 12.4025C12.9134 12.2816 12.9825 12.1217 12.9842 11.9549V9.59369C12.9821 9.37339 12.9011 9.16012 12.7542 8.98813C12.6072 8.81614 12.4028 8.69539 12.1738 8.64528L10.5137 8.3013C10.3084 8.26029 10.0946 8.27794 9.90012 8.35197C9.70561 8.42599 9.53929 8.55299 9.42267 8.71653L9.0555 9.23742C9.02179 9.28509 8.97139 9.32024 8.91299 9.33684C8.85458 9.35343 8.79183 9.35043 8.73554 9.32833C7.89105 8.98681 4.52621 7.51259 4.15642 5.02609C4.14918 4.97806 4.15727 4.92911 4.17967 4.88538C4.20207 4.84166 4.23778 4.80513 4.28231 4.78038L4.94846 4.39954C5.13117 4.29346 5.27469 4.13735 5.35959 3.95234C5.44449 3.76733 5.46668 3.56235 5.42315 3.36514L5.05861 1.78281C5.00531 1.56111 4.87166 1.36356 4.68039 1.22379C4.48912 1.08402 4.25205 1.01067 4.00955 1.01622L1.36332 1.11205Z" stroke="#FEEC8A"/>
</svg>
