<svg width="33" height="33" viewBox="0 0 33 33" fill="none" xmlns="http://www.w3.org/2000/svg">
<circle cx="16.5" cy="16.5" r="16" fill="#273270" stroke="#273270"/>
<path d="M12.487 11.0828C12.4197 11.0852 12.3535 11.1025 12.2924 11.1336C12.2313 11.1647 12.1764 11.209 12.1311 11.2639C12.0858 11.3188 12.0509 11.3832 12.0285 11.4532C12.0062 11.5232 11.9968 11.5974 12.001 11.6715C12.0682 12.942 12.3852 16.0421 13.903 17.9754C15.7205 20.3047 18.0874 21.1073 20.5159 20.9887C20.646 20.9801 20.7684 20.9174 20.8583 20.8133C20.9481 20.7091 20.9988 20.5713 21 20.4276V18.3926C20.9985 18.2027 20.9391 18.0189 20.8315 17.8707C20.7238 17.7225 20.5741 17.6184 20.4063 17.5752L19.1902 17.2788C19.0398 17.2434 18.8832 17.2586 18.7407 17.3224C18.5982 17.3862 18.4764 17.4957 18.391 17.6366L18.122 18.0856C18.0973 18.1266 18.0604 18.1569 18.0176 18.1712C17.9748 18.1855 17.9288 18.1829 17.8876 18.1639C17.269 17.8696 14.804 16.599 14.5331 14.4561C14.5278 14.4147 14.5338 14.3725 14.5502 14.3348C14.5666 14.2971 14.5927 14.2657 14.6254 14.2443L15.1133 13.9161C15.2472 13.8247 15.3523 13.6901 15.4145 13.5307C15.4767 13.3712 15.493 13.1946 15.4611 13.0246L15.194 11.6609C15.155 11.4699 15.0571 11.2996 14.917 11.1791C14.7769 11.0587 14.6032 10.9955 14.4255 11.0003L12.487 11.0828Z" stroke="#FEEC8A"/>
</svg>
