<svg width="21" height="19" viewBox="0 0 21 19" fill="none" xmlns="http://www.w3.org/2000/svg">
<path d="M16.8777 7.33249C16.8777 5.74138 16.2234 4.21543 15.0586 3.09034C13.8938 1.96525 12.3141 1.33318 10.6668 1.33318C9.01957 1.33318 7.4398 1.96525 6.27503 3.09034C5.11025 4.21543 4.45589 5.74138 4.45589 7.33249C4.45589 9.79355 6.49445 13.0012 10.6668 16.8434C14.8392 13.0012 16.8777 9.79355 16.8777 7.33249ZM10.6668 18.6645C5.6056 14.221 3.07568 10.4428 3.07568 7.33249C3.07568 5.3878 3.87546 3.52275 5.29907 2.14764C6.72269 0.772529 8.65352 0 10.6668 0C12.6801 0 14.6109 0.772529 16.0346 2.14764C17.4582 3.52275 18.2579 5.3878 18.2579 7.33249C18.2579 10.4428 15.728 14.221 10.6668 18.6645Z" fill="#FEEC8A"/>
<path d="M10.6669 8.48376C11.0504 8.48376 11.4182 8.34968 11.6893 8.11103C11.9605 7.87237 12.1128 7.54869 12.1128 7.21118C12.1128 6.87367 11.9605 6.54998 11.6893 6.31133C11.4182 6.07267 11.0504 5.9386 10.6669 5.9386C10.2834 5.9386 9.91565 6.07267 9.64449 6.31133C9.37333 6.54998 9.22099 6.87367 9.22099 7.21118C9.22099 7.54869 9.37333 7.87237 9.64449 8.11103C9.91565 8.34968 10.2834 8.48376 10.6669 8.48376ZM10.6669 9.75634C9.89995 9.75634 9.16439 9.48819 8.62206 9.01088C8.07973 8.53357 7.77506 7.8862 7.77506 7.21118C7.77506 6.53616 8.07973 5.88879 8.62206 5.41148C9.16439 4.93417 9.89995 4.66602 10.6669 4.66602C11.4339 4.66602 12.1694 4.93417 12.7118 5.41148C13.2541 5.88879 13.5588 6.53616 13.5588 7.21118C13.5588 7.8862 13.2541 8.53357 12.7118 9.01088C12.1694 9.48819 11.4339 9.75634 10.6669 9.75634ZM18.4749 13.5741L20.7884 18.6644H14.2817V17.3918H7.05209V18.6644H0.54541L2.8589 13.5741H18.4749ZM16.9177 13.5741H4.41616L2.68105 17.3918H18.6528L16.9177 13.5741Z" fill="#FEEC8A"/>
</svg>
