<svg width="30" height="20" viewBox="0 0 11 8" fill="none" xmlns="http://www.w3.org/2000/svg">
<path d="M8.64006 -0.00219727H2.14461C0.962037 -0.00219727 0 0.925099 0 2.06471V5.5436C0 6.68343 0.962037 7.61051 2.14461 7.61051H8.64006C9.82263 7.61051 10.7847 6.68321 10.7847 5.5436V2.06471C10.7847 0.925099 9.82263 -0.00219727 8.64006 -0.00219727ZM10.3445 5.54382C10.3445 6.45039 9.57987 7.18778 8.64006 7.18778H2.14461C1.2048 7.18778 0.440191 6.45018 0.440191 5.54382V2.06471C0.440191 1.15835 1.2048 0.420743 2.14461 0.420743H8.64006C9.57987 0.420743 10.3445 1.15835 10.3445 2.06471V5.54382Z" fill="#ADADAD"/>
<path d="M7.34221 3.72791L4.29279 2.01183C4.225 1.97377 4.14071 1.97313 4.07226 2.01077C4.00381 2.04842 3.96155 2.11841 3.96155 2.19433V5.62628C3.96155 5.70198 4.00381 5.77219 4.07204 5.80983C4.10593 5.82844 4.14379 5.83775 4.18164 5.83775C4.22016 5.83775 4.25846 5.82802 4.29279 5.80878L7.34221 4.09312C7.40956 4.05527 7.45116 3.98569 7.45116 3.91062C7.45116 3.83555 7.40978 3.76576 7.34221 3.72791ZM4.40174 5.25726V2.56313L6.7955 3.91041L4.40174 5.25726Z" fill="#ADADAD"/>
</svg>
