<svg width="20" height="20" viewBox="0 0 9 9" fill="none" xmlns="http://www.w3.org/2000/svg">
<path d="M4.5 2.60352C5.60742 2.60352 6.52148 3.51758 6.52148 4.625C6.52148 5.75 5.60742 6.64648 4.5 6.64648C3.375 6.64648 2.47852 5.75 2.47852 4.625C2.47852 3.51758 3.375 2.60352 4.5 2.60352ZM4.5 5.94336C5.2207 5.94336 5.80078 5.36328 5.80078 4.625C5.80078 3.9043 5.2207 3.32422 4.5 3.32422C3.76172 3.32422 3.18164 3.9043 3.18164 4.625C3.18164 5.36328 3.7793 5.94336 4.5 5.94336ZM7.06641 2.5332C7.06641 2.79688 6.85547 3.00781 6.5918 3.00781C6.32812 3.00781 6.11719 2.79688 6.11719 2.5332C6.11719 2.26953 6.32812 2.05859 6.5918 2.05859C6.85547 2.05859 7.06641 2.26953 7.06641 2.5332ZM8.40234 3.00781C8.4375 3.6582 8.4375 5.60938 8.40234 6.25977C8.36719 6.89258 8.22656 7.4375 7.76953 7.91211C7.3125 8.36914 6.75 8.50977 6.11719 8.54492C5.4668 8.58008 3.51562 8.58008 2.86523 8.54492C2.23242 8.50977 1.6875 8.36914 1.21289 7.91211C0.755859 7.4375 0.615234 6.89258 0.580078 6.25977C0.544922 5.60938 0.544922 3.6582 0.580078 3.00781C0.615234 2.375 0.755859 1.8125 1.21289 1.35547C1.6875 0.898438 2.23242 0.757812 2.86523 0.722656C3.51562 0.6875 5.4668 0.6875 6.11719 0.722656C6.75 0.757812 7.3125 0.898438 7.76953 1.35547C8.22656 1.8125 8.36719 2.375 8.40234 3.00781ZM7.55859 6.94531C7.76953 6.43555 7.7168 5.20508 7.7168 4.625C7.7168 4.0625 7.76953 2.83203 7.55859 2.30469C7.41797 1.9707 7.1543 1.68945 6.82031 1.56641C6.29297 1.35547 5.0625 1.4082 4.5 1.4082C3.91992 1.4082 2.68945 1.35547 2.17969 1.56641C1.82812 1.70703 1.56445 1.9707 1.42383 2.30469C1.21289 2.83203 1.26562 4.0625 1.26562 4.625C1.26562 5.20508 1.21289 6.43555 1.42383 6.94531C1.56445 7.29688 1.82812 7.56055 2.17969 7.70117C2.68945 7.91211 3.91992 7.85938 4.5 7.85938C5.0625 7.85938 6.29297 7.91211 6.82031 7.70117C7.1543 7.56055 7.43555 7.29688 7.55859 6.94531Z" fill="#ADADAD"/>
</svg>
